[ 
      {  
         "pitch":60,
         "offset":4096,
         "duration":1024,
         "velocity":60,
         "finger":1
      },
      {  
         "pitch":67,
         "offset":4096,
         "duration":1024,
         "velocity":60,
         "finger":5
      },
      {  
         "pitch":60,
         "offset":5120,
         "duration":1024,
         "velocity":60,
         "finger":1
      },
      {  
         "pitch":67,
         "offset":5120,
         "duration":1024,
         "velocity":60,
         "finger":5
      },
      {  
         "pitch":60,
         "offset":6144,
         "duration":1024,
         "velocity":60,
         "finger":1
      },
      {  
         "pitch":67,
         "offset":6144,
         "duration":1024,
         "velocity":60,
         "finger":5
      },
      {  
         "pitch":62,
         "offset":7168,
         "duration":1024,
         "velocity":60,
         "finger":1
      },
      {  
         "pitch":69,
         "offset":7168,
         "duration":1024,
         "velocity":60,
         "finger":5
      },
      {  
         "pitch":64,
         "offset":8192,
         "duration":1024,
         "velocity":60,
         "finger":1
      },
      {  
         "pitch":71,
         "offset":8192,
         "duration":1024,
         "velocity":60,
         "finger":5
      },
      {  
         "pitch":64,
         "offset":9216,
         "duration":1024,
         "velocity":60,
         "finger":1
      },
      {  
         "pitch":71,
         "offset":9216,
         "duration":1024,
         "velocity":60,
         "finger":5
      },
      {  
         "pitch":62,
         "offset":10240,
         "duration":1024,
         "velocity":60,
         "finger":1
      },
      {  
         "pitch":69,
         "offset":10240,
         "duration":1024,
         "velocity":60,
         "finger":5
      },
      {  
         "pitch":62,
         "offset":11264,
         "duration":1024,
         "velocity":60,
         "finger":1
      },
      {  
         "pitch":69,
         "offset":11264,
         "duration":1024,
         "velocity":60,
         "finger":5
      },
      {  
         "pitch":60,
         "offset":12288,
         "duration":1024,
         "velocity":60,
         "finger":1
      },
      {  
         "pitch":67,
         "offset":12288,
         "duration":1024,
         "velocity":60,
         "finger":5
      },
      {  
         "pitch":60,
         "offset":13312,
         "duration":1024,
         "velocity":60,
         "finger":1
      },
      {  
         "pitch":67,
         "offset":13312,
         "duration":1024,
         "velocity":60,
         "finger":5
      },
      {  
         "pitch":60,
         "offset":14336,
         "duration":1024,
         "velocity":60,
         "finger":1
      },
      {  
         "pitch":67,
         "offset":14336,
         "duration":1024,
         "velocity":60,
         "finger":5
      },
      {  
         "pitch":62,
         "offset":15360,
         "duration":1024,
         "velocity":60,
         "finger":1
      },
      {  
         "pitch":69,
         "offset":15360,
         "duration":1024,
         "velocity":60,
         "finger":5
      },
      {  
         "pitch":64,
         "offset":16384,
         "duration":1024,
         "velocity":60,
         "finger":1
      },
      {  
         "pitch":71,
         "offset":16384,
         "duration":1024,
         "velocity":60,
         "finger":5
      },
      {  
         "pitch":64,
         "offset":17408,
         "duration":1024,
         "velocity":60,
         "finger":1
      },
      {  
         "pitch":71,
         "offset":17408,
         "duration":1024,
         "velocity":60,
         "finger":5
      },
      {  
         "pitch":64,
         "offset":18432,
         "duration":1024,
         "velocity":60,
         "finger":1
      },
      {  
         "pitch":71,
         "offset":18432,
         "duration":1024,
         "velocity":60,
         "finger":5
      },
      {  
         "pitch":62,
         "offset":19456,
         "duration":1024,
         "velocity":60,
         "finger":1
      },
      {  
         "pitch":69,
         "offset":19456,
         "duration":1024,
         "velocity":60,
         "finger":5
      },
      {  
         "pitch":60,
         "offset":20480,
         "duration":1024,
         "velocity":60,
         "finger":1
      },
      {  
         "pitch":67,
         "offset":20480,
         "duration":1024,
         "velocity":60,
         "finger":5
      },
      {  
         "pitch":60,
         "offset":21504,
         "duration":1024,
         "velocity":60,
         "finger":1
      },
      {  
         "pitch":67,
         "offset":21504,
         "duration":1024,
         "velocity":60,
         "finger":5
      },
      {  
         "pitch":60,
         "offset":22528,
         "duration":1024,
         "velocity":60,
         "finger":1
      },
      {  
         "pitch":67,
         "offset":22528,
         "duration":1024,
         "velocity":60,
         "finger":5
      },
      {  
         "pitch":62,
         "offset":23552,
         "duration":1024,
         "velocity":60,
         "finger":1
      },
      {  
         "pitch":69,
         "offset":23552,
         "duration":1024,
         "velocity":60,
         "finger":5
      },
      {  
         "pitch":64,
         "offset":24576,
         "duration":1024,
         "velocity":60,
         "finger":1
      },
      {  
         "pitch":71,
         "offset":24576,
         "duration":1024,
         "velocity":60,
         "finger":5
      },
      {  
         "pitch":64,
         "offset":25600,
         "duration":1024,
         "velocity":60,
         "finger":1
      },
      {  
         "pitch":71,
         "offset":25600,
         "duration":1024,
         "velocity":60,
         "finger":5
      },
      {  
         "pitch":62,
         "offset":26624,
         "duration":1024,
         "velocity":60,
         "finger":1
      },
      {  
         "pitch":69,
         "offset":26624,
         "duration":1024,
         "velocity":60,
         "finger":5
      },
      {  
         "pitch":62,
         "offset":27648,
         "duration":1024,
         "velocity":60,
         "finger":1
      },
      {  
         "pitch":69,
         "offset":27648,
         "duration":1024,
         "velocity":60,
         "finger":5
      },
      {  
         "pitch":60,
         "offset":28672,
         "duration":1024,
         "velocity":60,
         "finger":1
      },
      {  
         "pitch":67,
         "offset":28672,
         "duration":1024,
         "velocity":60,
         "finger":5
      },
      {  
         "pitch":60,
         "offset":29696,
         "duration":1024,
         "velocity":60,
         "finger":1
      },
      {  
         "pitch":67,
         "offset":29696,
         "duration":1024,
         "velocity":60,
         "finger":5
      },
      {  
         "pitch":60,
         "offset":30720,
         "duration":1024,
         "velocity":60,
         "finger":1
      },
      {  
         "pitch":67,
         "offset":30720,
         "duration":1024,
         "velocity":60,
         "finger":5
      },
      {  
         "pitch":62,
         "offset":31744,
         "duration":1024,
         "velocity":60,
         "finger":1
      },
      {  
         "pitch":69,
         "offset":31744,
         "duration":1024,
         "velocity":60,
         "finger":5
      },
      {  
         "pitch":64,
         "offset":32768,
         "duration":1024,
         "velocity":60,
         "finger":1
      },
      {  
         "pitch":71,
         "offset":32768,
         "duration":1024,
         "velocity":60,
         "finger":5
      },
      {  
         "pitch":64,
         "offset":33792,
         "duration":1024,
         "velocity":60,
         "finger":1
      },
      {  
         "pitch":71,
         "offset":33792,
         "duration":1024,
         "velocity":60,
         "finger":5
      },
      {  
         "pitch":64,
         "offset":34816,
         "duration":2048,
         "velocity":60,
         "finger":1
      },
      {  
         "pitch":71,
         "offset":34816,
         "duration":2048,
         "velocity":60,
         "finger":5
      },
      {  
         "pitch":48,
         "offset":36864,
         "duration":1024,
         "velocity":80,
         "finger":1
      },
      {  
         "pitch":55,
         "offset":36864,
         "duration":1024,
         "velocity":80,
         "finger":5
      },
      {  
         "pitch":48,
         "offset":37888,
         "duration":1024,
         "velocity":80,
         "finger":1
      },
      {  
         "pitch":55,
         "offset":37888,
         "duration":1024,
         "velocity":80,
         "finger":5
      },
      {  
         "pitch":43,
         "offset":38912,
         "duration":1024,
         "velocity":80,
         "finger":1
      },
      {  
         "pitch":50,
         "offset":38912,
         "duration":1024,
         "velocity":80,
         "finger":5
      },
      {  
         "pitch":43,
         "offset":39936,
         "duration":1024,
         "velocity":80,
         "finger":1
      },
      {  
         "pitch":50,
         "offset":39936,
         "duration":1024,
         "velocity":80,
         "finger":5
      },
      {  
         "pitch":50,
         "offset":40960,
         "duration":1024,
         "velocity":80,
         "finger":1
      },
      {  
         "pitch":57,
         "offset":40960,
         "duration":1024,
         "velocity":80,
         "finger":5
      },
      {  
         "pitch":50,
         "offset":41984,
         "duration":1024,
         "velocity":80,
         "finger":1
      },
      {  
         "pitch":57,
         "offset":41984,
         "duration":1024,
         "velocity":80,
         "finger":5
      },
      {  
         "pitch":52,
         "offset":43008,
         "duration":1024,
         "velocity":80,
         "finger":1
      },
      {  
         "pitch":59,
         "offset":43008,
         "duration":1024,
         "velocity":80,
         "finger":5
      },
      {  
         "pitch":52,
         "offset":44032,
         "duration":1024,
         "velocity":80,
         "finger":1
      },
      {  
         "pitch":59,
         "offset":44032,
         "duration":1024,
         "velocity":80,
         "finger":5
      },
      {  
         "pitch":48,
         "offset":45056,
         "duration":1024,
         "velocity":80,
         "finger":1
      },
      {  
         "pitch":55,
         "offset":45056,
         "duration":1024,
         "velocity":80,
         "finger":5
      },
      {  
         "pitch":48,
         "offset":46080,
         "duration":1024,
         "velocity":80,
         "finger":1
      },
      {  
         "pitch":55,
         "offset":46080,
         "duration":1024,
         "velocity":80,
         "finger":5
      },
      {  
         "pitch":43,
         "offset":47104,
         "duration":1024,
         "velocity":80,
         "finger":1
      },
      {  
         "pitch":50,
         "offset":47104,
         "duration":1024,
         "velocity":80,
         "finger":5
      },
      {  
         "pitch":43,
         "offset":48128,
         "duration":1024,
         "velocity":80,
         "finger":1
      },
      {  
         "pitch":50,
         "offset":48128,
         "duration":1024,
         "velocity":80,
         "finger":5
      },
      {  
         "pitch":50,
         "offset":49152,
         "duration":1024,
         "velocity":80,
         "finger":1
      },
      {  
         "pitch":57,
         "offset":49152,
         "duration":1024,
         "velocity":80,
         "finger":5
      },
      {  
         "pitch":57,
         "offset":50688,
         "duration":512,
         "velocity":80,
         "finger":5
      },
      {  
         "pitch":48,
         "offset":53248,
         "duration":1024,
         "velocity":80,
         "finger":1
      },
      {  
         "pitch":55,
         "offset":53248,
         "duration":1024,
         "velocity":80,
         "finger":5
      },
      {  
         "pitch":48,
         "offset":54272,
         "duration":1024,
         "velocity":80,
         "finger":1
      },
      {  
         "pitch":55,
         "offset":54272,
         "duration":1024,
         "velocity":80,
         "finger":5
      },
      {  
         "pitch":43,
         "offset":55296,
         "duration":1024,
         "velocity":80,
         "finger":1
      },
      {  
         "pitch":50,
         "offset":55296,
         "duration":1024,
         "velocity":80,
         "finger":5
      },
      {  
         "pitch":43,
         "offset":56320,
         "duration":1024,
         "velocity":80,
         "finger":1
      },
      {  
         "pitch":50,
         "offset":56320,
         "duration":1024,
         "velocity":80,
         "finger":5
      },
      {  
         "pitch":50,
         "offset":57344,
         "duration":1024,
         "velocity":80,
         "finger":1
      },
      {  
         "pitch":57,
         "offset":57344,
         "duration":1024,
         "velocity":80,
         "finger":5
      },
      {  
         "pitch":50,
         "offset":58368,
         "duration":1024,
         "velocity":80,
         "finger":1
      },
      {  
         "pitch":57,
         "offset":58368,
         "duration":1024,
         "velocity":80,
         "finger":5
      },
      {  
         "pitch":52,
         "offset":59392,
         "duration":1024,
         "velocity":80,
         "finger":1
      },
      {  
         "pitch":59,
         "offset":59392,
         "duration":1024,
         "velocity":80,
         "finger":5
      },
      {  
         "pitch":52,
         "offset":60416,
         "duration":1024,
         "velocity":80,
         "finger":1
      },
      {  
         "pitch":59,
         "offset":60416,
         "duration":1024,
         "velocity":80,
         "finger":5
      },
      {  
         "pitch":48,
         "offset":61440,
         "duration":1024,
         "velocity":80,
         "finger":1
      },
      {  
         "pitch":55,
         "offset":61440,
         "duration":1024,
         "velocity":80,
         "finger":5
      },
      {  
         "pitch":48,
         "offset":62464,
         "duration":1024,
         "velocity":80,
         "finger":1
      },
      {  
         "pitch":55,
         "offset":62464,
         "duration":1024,
         "velocity":80,
         "finger":5
      },
      {  
         "pitch":43,
         "offset":63488,
         "duration":1024,
         "velocity":80,
         "finger":1
      },
      {  
         "pitch":50,
         "offset":63488,
         "duration":1024,
         "velocity":80,
         "finger":5
      },
      {  
         "pitch":43,
         "offset":64512,
         "duration":1024,
         "velocity":80,
         "finger":1
      },
      {  
         "pitch":50,
         "offset":64512,
         "duration":1024,
         "velocity":80,
         "finger":5
      },
      {  
         "pitch":50,
         "offset":65536,
         "duration":1024,
         "velocity":80,
         "finger":1
      },
      {  
         "pitch":57,
         "offset":65536,
         "duration":1024,
         "velocity":80,
         "finger":5
      },
      {  
         "pitch":57,
         "offset":67072,
         "duration":512,
         "velocity":80,
         "finger":5
      },
      {  
         "pitch":52,
         "offset":69632,
         "duration":1024,
         "velocity":80,
         "finger":1
      },
      {  
         "pitch":59,
         "offset":69632,
         "duration":1024,
         "velocity":80,
         "finger":5
      },
      {  
         "pitch":52,
         "offset":70656,
         "duration":512,
         "velocity":80,
         "finger":1
      },
      {  
         "pitch":59,
         "offset":70656,
         "duration":512,
         "velocity":80,
         "finger":5
      },
      {  
         "pitch":55,
         "offset":71168,
         "duration":512,
         "velocity":80,
         "finger":4
      },
      {  
         "pitch":48,
         "offset":71680,
         "duration":512,
         "velocity":80,
         "finger":1
      },
      {  
         "pitch":55,
         "offset":72192,
         "duration":512,
         "velocity":80,
         "finger":5
      },
      {  
         "pitch":55,
         "offset":73216,
         "duration":512,
         "velocity":80,
         "finger":5
      },
      {  
         "pitch":50,
         "offset":73728,
         "duration":512,
         "velocity":80,
         "finger":2
      },
      {  
         "pitch":57,
         "offset":74240,
         "duration":512,
         "velocity":80,
         "finger":5
      },
      {  
         "pitch":57,
         "offset":75264,
         "duration":512,
         "velocity":80,
         "finger":5
      },
      {  
         "pitch":47,
         "offset":75776,
         "duration":512,
         "velocity":80,
         "finger":1
      },
      {  
         "pitch":54,
         "offset":76288,
         "duration":512,
         "velocity":80,
         "finger":4
      },
      {  
         "pitch":54,
         "offset":77312,
         "duration":512,
         "velocity":80,
         "finger":4
      },
      {  
         "pitch":52,
         "offset":77824,
         "duration":512,
         "velocity":80,
         "finger":3
      },
      {  
         "pitch":59,
         "offset":78336,
         "duration":512,
         "velocity":80,
         "finger":5
      },
      {  
         "pitch":59,
         "offset":79360,
         "duration":512,
         "velocity":80,
         "finger":5
      },
      {  
         "pitch":48,
         "offset":79872,
         "duration":512,
         "velocity":80,
         "finger":1
      },
      {  
         "pitch":55,
         "offset":80384,
         "duration":512,
         "velocity":80,
         "finger":5
      },
      {  
         "pitch":55,
         "offset":81408,
         "duration":512,
         "velocity":80,
         "finger":5
      },
      {  
         "pitch":50,
         "offset":81920,
         "duration":512,
         "velocity":80,
         "finger":2
      },
      {  
         "pitch":57,
         "offset":82432,
         "duration":512,
         "velocity":80,
         "finger":5
      },
      {  
         "pitch":57,
         "offset":83456,
         "duration":512,
         "velocity":80,
         "finger":5
      },
      {  
         "pitch":57,
         "offset":84480,
         "duration":512,
         "velocity":80,
         "finger":5
      },
      {  
         "pitch":52,
         "offset":86016,
         "duration":512,
         "velocity":80,
         "finger":1
      },
      {  
         "pitch":59,
         "offset":86528,
         "duration":512,
         "velocity":80,
         "finger":4
      },
      {  
         "pitch":64,
         "offset":87040,
         "duration":1024,
         "velocity":80,
         "finger":5
      },
      {  
         "pitch":48,
         "offset":88064,
         "duration":512,
         "velocity":80,
         "finger":1
      },
      {  
         "pitch":55,
         "offset":88576,
         "duration":512,
         "velocity":80,
         "finger":4
      },
      {  
         "pitch":60,
         "offset":89088,
         "duration":512,
         "velocity":80,
         "finger":5
      },
      {  
         "pitch":55,
         "offset":89600,
         "duration":512,
         "velocity":80,
         "finger":4
      },
      {  
         "pitch":50,
         "offset":90112,
         "duration":512,
         "velocity":80,
         "finger":1
      },
      {  
         "pitch":57,
         "offset":90624,
         "duration":512,
         "velocity":80,
         "finger":4
      },
      {  
         "pitch":62,
         "offset":91136,
         "duration":1024,
         "velocity":80,
         "finger":5
      },
      {  
         "pitch":47,
         "offset":92160,
         "duration":512,
         "velocity":80,
         "finger":1
      },
      {  
         "pitch":54,
         "offset":92672,
         "duration":512,
         "velocity":80,
         "finger":4
      },
      {  
         "pitch":59,
         "offset":93184,
         "duration":512,
         "velocity":80,
         "finger":5
      },
      {  
         "pitch":54,
         "offset":93696,
         "duration":512,
         "velocity":80,
         "finger":4
      },
      {  
         "pitch":52,
         "offset":94208,
         "duration":512,
         "velocity":80,
         "finger":1
      },
      {  
         "pitch":59,
         "offset":94720,
         "duration":512,
         "velocity":80,
         "finger":4
      },
      {  
         "pitch":64,
         "offset":95232,
         "duration":1024,
         "velocity":80,
         "finger":5
      },
      {  
         "pitch":48,
         "offset":96256,
         "duration":512,
         "velocity":80,
         "finger":1
      },
      {  
         "pitch":55,
         "offset":96768,
         "duration":512,
         "velocity":80,
         "finger":4
      },
      {  
         "pitch":60,
         "offset":97280,
         "duration":512,
         "velocity":80,
         "finger":5
      },
      {  
         "pitch":55,
         "offset":97792,
         "duration":512,
         "velocity":80,
         "finger":4
      },
      {  
         "pitch":50,
         "offset":98304,
         "duration":512,
         "velocity":80,
         "finger":1
      },
      {  
         "pitch":57,
         "offset":98816,
         "duration":512,
         "velocity":80,
         "finger":4
      },
      {  
         "pitch":57,
         "offset":99840,
         "duration":512,
         "velocity":80,
         "finger":4
      },
      {  
         "pitch":57,
         "offset":100864,
         "duration":512,
         "velocity":80,
         "finger":4
      },
      {  
         "pitch":52,
         "offset":102400,
         "duration":512,
         "velocity":80,
         "finger":1
      },
      {  
         "pitch":59,
         "offset":102912,
         "duration":512,
         "velocity":80,
         "finger":4
      },
      {  
         "pitch":64,
         "offset":103424,
         "duration":1024,
         "velocity":80,
         "finger":5
      },
      {  
         "pitch":48,
         "offset":104448,
         "duration":512,
         "velocity":80,
         "finger":1
      },
      {  
         "pitch":55,
         "offset":104960,
         "duration":512,
         "velocity":80,
         "finger":4
      },
      {  
         "pitch":60,
         "offset":105472,
         "duration":512,
         "velocity":80,
         "finger":5
      },
      {  
         "pitch":55,
         "offset":105984,
         "duration":512,
         "velocity":80,
         "finger":4
      },
      {  
         "pitch":50,
         "offset":106496,
         "duration":512,
         "velocity":80,
         "finger":1
      },
      {  
         "pitch":57,
         "offset":107008,
         "duration":512,
         "velocity":80,
         "finger":4
      },
      {  
         "pitch":62,
         "offset":107520,
         "duration":1024,
         "velocity":80,
         "finger":5
      },
      {  
         "pitch":47,
         "offset":108544,
         "duration":512,
         "velocity":80,
         "finger":1
      },
      {  
         "pitch":54,
         "offset":109056,
         "duration":512,
         "velocity":80,
         "finger":4
      },
      {  
         "pitch":59,
         "offset":109568,
         "duration":512,
         "velocity":80,
         "finger":5
      },
      {  
         "pitch":54,
         "offset":110080,
         "duration":512,
         "velocity":80,
         "finger":4
      },
      {  
         "pitch":52,
         "offset":110592,
         "duration":512,
         "velocity":80,
         "finger":1
      },
      {  
         "pitch":59,
         "offset":111104,
         "duration":512,
         "velocity":80,
         "finger":4
      },
      {  
         "pitch":64,
         "offset":111616,
         "duration":1024,
         "velocity":80,
         "finger":5
      },
      {  
         "pitch":48,
         "offset":112640,
         "duration":512,
         "velocity":80,
         "finger":1
      },
      {  
         "pitch":55,
         "offset":113152,
         "duration":512,
         "velocity":80,
         "finger":4
      },
      {  
         "pitch":60,
         "offset":113664,
         "duration":512,
         "velocity":80,
         "finger":5
      },
      {  
         "pitch":55,
         "offset":114176,
         "duration":512,
         "velocity":80,
         "finger":4
      },
      {  
         "pitch":50,
         "offset":114688,
         "duration":1024,
         "velocity":80,
         "finger":1
      },
      {  
         "pitch":57,
         "offset":114688,
         "duration":1024,
         "velocity":80,
         "finger":5
      },
      {  
         "pitch":57,
         "offset":116224,
         "duration":512,
         "velocity":80,
         "finger":5
         
      },
      {  
         "pitch":48,
         "offset":118784,
         "duration":1024,
         "velocity":80,
         "finger":1
      },
      {  
         "pitch":55,
         "offset":118784,
         "duration":1024,
         "velocity":80,
         "finger":5
      },
      {  
         "pitch":48,
         "offset":119808,
         "duration":1024,
         "velocity":80,
         "finger":1
      },
      {  
         "pitch":55,
         "offset":119808,
         "duration":1024,
         "velocity":80,
         "finger":5
      },
      {  
         "pitch":43,
         "offset":120832,
         "duration":1024,
         "velocity":80,
         "finger":1
      },
      {  
         "pitch":50,
         "offset":120832,
         "duration":1024,
         "velocity":80,
         "finger":5
      },
      {  
         "pitch":43,
         "offset":121856,
         "duration":1024,
         "velocity":80,
         "finger":1
      },
      {  
         "pitch":50,
         "offset":121856,
         "duration":1024,
         "velocity":80,
         "finger":5
      },
      {  
         "pitch":50,
         "offset":122880,
         "duration":1024,
         "velocity":80,
         "finger":1
      },
      {  
         "pitch":57,
         "offset":122880,
         "duration":1024,
         "velocity":80,
         "finger":5
      },
      {  
         "pitch":50,
         "offset":123904,
         "duration":1024,
         "velocity":80,
         "finger":1
      },
      {  
         "pitch":57,
         "offset":123904,
         "duration":1024,
         "velocity":80,
         "finger":5
      },
      {  
         "pitch":52,
         "offset":124928,
         "duration":1024,
         "velocity":80,
         "finger":1
      },
      {  
         "pitch":59,
         "offset":124928,
         "duration":1024,
         "velocity":80,
         "finger":5
      },
      {  
         "pitch":52,
         "offset":125952,
         "duration":1024,
         "velocity":80,
         "finger":1
      },
      {  
         "pitch":59,
         "offset":125952,
         "duration":1024,
         "velocity":80,
         "finger":5
      },
      {  
         "pitch":48,
         "offset":126976,
         "duration":1024,
         "velocity":80,
         "finger":1
      },
      {  
         "pitch":55,
         "offset":126976,
         "duration":1024,
         "velocity":80,
         "finger":5
      },
      {  
         "pitch":48,
         "offset":128000,
         "duration":1024,
         "velocity":80,
         "finger":1
      },
      {  
         "pitch":55,
         "offset":128000,
         "duration":1024,
         "velocity":80,
         "finger":5
      },
      {  
         "pitch":43,
         "offset":129024,
         "duration":1024,
         "velocity":80,
         "finger":1
      },
      {  
         "pitch":50,
         "offset":129024,
         "duration":1024,
         "velocity":80,
         "finger":5
      },
      {  
         "pitch":43,
         "offset":130048,
         "duration":1024,
         "velocity":80,
         "finger":1
      },
      {  
         "pitch":50,
         "offset":130048,
         "duration":1024,
         "velocity":80,
         "finger":5
      },
      {  
         "pitch":50,
         "offset":131072,
         "duration":1024,
         "velocity":80,
         "finger":1
      },
      {  
         "pitch":57,
         "offset":131072,
         "duration":1024,
         "velocity":80,
         "finger":5
      },
      {  
         "pitch":57,
         "offset":132608,
         "duration":512,
         "velocity":80,
         "finger":5
      },
      {  
         "pitch":48,
         "offset":135168,
         "duration":1024,
         "velocity":80,
         "finger":1
      },
      {  
         "pitch":55,
         "offset":135168,
         "duration":1024,
         "velocity":80,
         "finger":5
      },
      {  
         "pitch":48,
         "offset":136192,
         "duration":1024,
         "velocity":80,
         "finger":1
      },
      {  
         "pitch":55,
         "offset":136192,
         "duration":1024,
         "velocity":80,
         "finger":5
      },
      {  
         "pitch":43,
         "offset":137216,
         "duration":1024,
         "velocity":80,
         "finger":1
      },
      {  
         "pitch":50,
         "offset":137216,
         "duration":1024,
         "velocity":80,
         "finger":5
      },
      {  
         "pitch":43,
         "offset":138240,
         "duration":1024,
         "velocity":80,
         "finger":1
      },
      {  
         "pitch":50,
         "offset":138240,
         "duration":1024,
         "velocity":80,
         "finger":5
      },
      {  
         "pitch":50,
         "offset":139264,
         "duration":1024,
         "velocity":80,
         "finger":1
      },
      {  
         "pitch":57,
         "offset":139264,
         "duration":1024,
         "velocity":80,
         "finger":5
      },
      {  
         "pitch":50,
         "offset":140288,
         "duration":1024,
         "velocity":80,
         "finger":1
      },
      {  
         "pitch":57,
         "offset":140288,
         "duration":1024,
         "velocity":80,
         "finger":5
      },
      {  
         "pitch":52,
         "offset":141312,
         "duration":1024,
         "velocity":80,
         "finger":1
      },
      {  
         "pitch":59,
         "offset":141312,
         "duration":1024,
         "velocity":80,
         "finger":5
      },
      {  
         "pitch":52,
         "offset":142336,
         "duration":1024,
         "velocity":80,
         "finger":1
      },
      {  
         "pitch":59,
         "offset":142336,
         "duration":1024,
         "velocity":80,
         "finger":5
      },
      {  
         "pitch":48,
         "offset":143360,
         "duration":1024,
         "velocity":80,
         "finger":1
      },
      {  
         "pitch":55,
         "offset":143360,
         "duration":1024,
         "velocity":80,
         "finger":5
      },
      {  
         "pitch":48,
         "offset":144384,
         "duration":1024,
         "velocity":80,
         "finger":1
      },
      {  
         "pitch":55,
         "offset":144384,
         "duration":1024,
         "velocity":80,
         "finger":5
      },
      {  
         "pitch":43,
         "offset":145408,
         "duration":1024,
         "velocity":80,
         "finger":1
      },
      {  
         "pitch":50,
         "offset":145408,
         "duration":1024,
         "velocity":80,
         "finger":5
      },
      {  
         "pitch":43,
         "offset":146432,
         "duration":1024,
         "velocity":80,
         "finger":1
      },
      {  
         "pitch":50,
         "offset":146432,
         "duration":1024,
         "velocity":80,
         "finger":5
      },
      {  
         "pitch":50,
         "offset":147456,
         "duration":1024,
         "velocity":80,
         "finger":1
      },
      {  
         "pitch":57,
         "offset":147456,
         "duration":1024,
         "velocity":80,
         "finger":5
      },
      {  
         "pitch":57,
         "offset":148992,
         "duration":512,
         "velocity":80,
         "finger":5
      },
      {  
         "pitch":57,
         "offset":150016,
         "duration":512,
         "velocity":80,
         "finger":5
      },
      {  
         "pitch":52,
         "offset":151552,
         "duration":512,
         "velocity":80,
         "finger":1
      },
      {  
         "pitch":59,
         "offset":152064,
         "duration":512,
         "velocity":80,
         "finger":4
      },
      {  
         "pitch":64,
         "offset":152576,
         "duration":512,
         "velocity":80,
         "finger":5
      },
      {  
         "pitch":59,
         "offset":153088,
         "duration":512,
         "velocity":80,
         "finger":4
      },
      {  
         "pitch":48,
         "offset":153600,
         "duration":512,
         "velocity":80,
         "finger":1
      },
      {  
         "pitch":55,
         "offset":154112,
         "duration":512,
         "velocity":80,
         "finger":4
      },
      {  
         "pitch":60,
         "offset":154624,
         "duration":512,
         "velocity":80,
         "finger":5
      },
      {  
         "pitch":55,
         "offset":155136,
         "duration":512,
         "velocity":80,
         "finger":4
      },
      {  
         "pitch":50,
         "offset":155648,
         "duration":512,
         "velocity":80,
         "finger":1
      },
      {  
         "pitch":57,
         "offset":156160,
         "duration":512,
         "velocity":80,
         "finger":4
      },
      {  
         "pitch":57,
         "offset":157184,
         "duration":512,
         "velocity":80,
         "finger":4
      },
      {  
         "pitch":57,
         "offset":158208,
         "duration":512,
         "velocity":80,
         "finger":4
      },
      {  
         "pitch":52,
         "offset":159744,
         "duration":512,
         "velocity":80,
         "finger":1
      },
      {  
         "pitch":59,
         "offset":160256,
         "duration":512,
         "velocity":80,
         "finger":4
      },
      {  
         "pitch":64,
         "offset":160768,
         "duration":512,
         "velocity":80,
         "finger":5
      },
      {  
         "pitch":59,
         "offset":161280,
         "duration":512,
         "velocity":80,
         "finger":4
      },
      {  
         "pitch":48,
         "offset":161792,
         "duration":512,
         "velocity":80,
         "finger":1
      },
      {  
         "pitch":55,
         "offset":162304,
         "duration":512,
         "velocity":80,
         "finger":4
      },
      {  
         "pitch":60,
         "offset":162816,
         "duration":512,
         "velocity":80,
         "finger":5
      },
      {  
         "pitch":55,
         "offset":163328,
         "duration":512,
         "velocity":80,
         "finger":4
      },
      {  
         "pitch":50,
         "offset":163840,
         "duration":512,
         "velocity":80,
         "finger":1
      },
      {  
         "pitch":57,
         "offset":164352,
         "duration":512,
         "velocity":80,
         "finger":4
      },
      {  
         "pitch":57,
         "offset":165376,
         "duration":512,
         "velocity":80,
         "finger":4
      },
      {  
         "pitch":57,
         "offset":166400,
         "duration":512,
         "velocity":80,
         "finger":4
      },
      {  
         "pitch":52,
         "offset":167936,
         "duration":512,
         "velocity":80,
         "finger":1
      },
      {  
         "pitch":59,
         "offset":168448,
         "duration":512,
         "velocity":80,
         "finger":4
      },
      {  
         "pitch":64,
         "offset":168960,
         "duration":512,
         "velocity":80,
         "finger":5
      },
      {  
         "pitch":59,
         "offset":169472,
         "duration":512,
         "velocity":80,
         "finger":4
      },
      {  
         "pitch":48,
         "offset":169984,
         "duration":512,
         "velocity":80,
         "finger":1
      },
      {  
         "pitch":55,
         "offset":170496,
         "duration":512,
         "velocity":80,
         "finger":4
      },
      {  
         "pitch":60,
         "offset":171008,
         "duration":512,
         "velocity":80,
         "finger":5
      },
      {  
         "pitch":55,
         "offset":171520,
         "duration":512,
         "velocity":80,
         "finger":4
      },
      {  
         "pitch":50,
         "offset":172032,
         "duration":512,
         "velocity":80,
         "finger":1
      },
      {  
         "pitch":57,
         "offset":172544,
         "duration":512,
         "velocity":80,
         "finger":4
      },
      {  
         "pitch":57,
         "offset":173568,
         "duration":512,
         "velocity":80,
         "finger":4
      },
      {  
         "pitch":57,
         "offset":174592,
         "duration":512,
         "velocity":80,
         "finger":4
      },
      {  
         "pitch":52,
         "offset":176128,
         "duration":512,
         "velocity":80,
         "finger":1
      },
      {  
         "pitch":59,
         "offset":176640,
         "duration":512,
         "velocity":80,
         "finger":4
      },
      {  
         "pitch":64,
         "offset":177152,
         "duration":512,
         "velocity":80,
         "finger":5
      },
      {  
         "pitch":59,
         "offset":177664,
         "duration":512,
         "velocity":80,
         "finger":4
      },
      {  
         "pitch":48,
         "offset":178176,
         "duration":512,
         "velocity":80,
         "finger":1
      },
      {  
         "pitch":55,
         "offset":178688,
         "duration":512,
         "velocity":80,
         "finger":4
      },
      {  
         "pitch":60,
         "offset":179200,
         "duration":512,
         "velocity":80,
         "finger":5
      },
      {  
         "pitch":55,
         "offset":179712,
         "duration":512,
         "velocity":80,
         "finger":4
      },
      {  
         "pitch":50,
         "offset":180224,
         "duration":1024,
         "velocity":80,
         "finger":1
      },
      {  
         "pitch":57,
         "offset":180224,
         "duration":1024,
         "velocity":80,
         "finger":5
      },
      {  
         "pitch":57,
         "offset":181760,
         "duration":512,
         "velocity":80,
         "finger":5
      },
      {  
         "pitch":60,
         "offset":184320,
         "duration":1024,
         "velocity":60,
         "finger":1
      },
      {  
         "pitch":67,
         "offset":184320,
         "duration":1024,
         "velocity":60,
         "finger":5
      },
      {  
         "pitch":60,
         "offset":185344,
         "duration":1024,
         "velocity":60,
         "finger":1
      },
      {  
         "pitch":67,
         "offset":185344,
         "duration":1024,
         "velocity":60,
         "finger":5
      },
      {  
         "pitch":55,
         "offset":186368,
         "duration":1024,
         "velocity":60,
         "finger":1
      },
      {  
         "pitch":62,
         "offset":186368,
         "duration":1024,
         "velocity":60,
         "finger":5
      },
      {  
         "pitch":55,
         "offset":187392,
         "duration":1024,
         "velocity":60,
         "finger":1
      },
      {  
         "pitch":62,
         "offset":187392,
         "duration":1024,
         "velocity":60,
         "finger":5
      },
      {  
         "pitch":62,
         "offset":188416,
         "duration":1024,
         "velocity":60,
         "finger":1
      },
      {  
         "pitch":69,
         "offset":188416,
         "duration":1024,
         "velocity":60,
         "finger":5
      },
      {  
         "pitch":62,
         "offset":189440,
         "duration":1024,
         "velocity":60,
         "finger":1
      },
      {  
         "pitch":69,
         "offset":189440,
         "duration":1024,
         "velocity":60,
         "finger":5
      },
      {  
         "pitch":64,
         "offset":190464,
         "duration":1024,
         "velocity":60,
         "finger":1
      },
      {  
         "pitch":71,
         "offset":190464,
         "duration":1024,
         "velocity":60,
         "finger":5
      },
      {  
         "pitch":64,
         "offset":191488,
         "duration":1024,
         "velocity":60,
         "finger":1
      },
      {  
         "pitch":71,
         "offset":191488,
         "duration":1024,
         "velocity":60,
         "finger":5
      },
      {  
         "pitch":60,
         "offset":192512,
         "duration":1024,
         "velocity":60,
         "finger":1
      },
      {  
         "pitch":67,
         "offset":192512,
         "duration":1024,
         "velocity":60,
         "finger":5
      },
      {  
         "pitch":60,
         "offset":193536,
         "duration":1024,
         "velocity":60,
         "finger":1
      },
      {  
         "pitch":67,
         "offset":193536,
         "duration":1024,
         "velocity":60,
         "finger":5
      },
      {  
         "pitch":55,
         "offset":194560,
         "duration":1024,
         "velocity":60,
         "finger":1
      },
      {  
         "pitch":62,
         "offset":194560,
         "duration":1024,
         "velocity":60,
         "finger":5
      },
      {  
         "pitch":55,
         "offset":195584,
         "duration":1024,
         "velocity":60,
         "finger":1
      },
      {  
         "pitch":62,
         "offset":195584,
         "duration":1024,
         "velocity":60,
         "finger":5
      },
      {  
         "pitch":62,
         "offset":196608,
         "duration":1024,
         "velocity":60,
         "finger":1
      },
      {  
         "pitch":69,
         "offset":196608,
         "duration":1024,
         "velocity":60,
         "finger":5
      },
      {  
         "pitch":69,
         "offset":198144,
         "duration":512,
         "velocity":60,
         "finger":5
      },
      {  
         "pitch":60,
         "offset":200704,
         "duration":2048,
         "velocity":60,
         "finger":1
      },
      {  
         "pitch":67,
         "offset":200704,
         "duration":2048,
         "velocity":60,
         "finger":5
      },
      {  
         "pitch":55,
         "offset":202752,
         "duration":2048,
         "velocity":60,
         "finger":1
      },
      {  
         "pitch":62,
         "offset":202752,
         "duration":2048,
         "velocity":60,
         "finger":5
      },
      {  
         "pitch":62,
         "offset":204800,
         "duration":2048,
         "velocity":60,
         "finger":1
      },
      {  
         "pitch":69,
         "offset":204800,
         "duration":2048,
         "velocity":60,
         "finger":5
      },
      {  
         "pitch":64,
         "offset":206848,
         "duration":2048,
         "velocity":60,
         "finger":1
      },
      {  
         "pitch":71,
         "offset":206848,
         "duration":2048,
         "velocity":60,
         "finger":5
      },
      {  
         "pitch":60,
         "offset":208896,
         "duration":2048,
         "velocity":60,
         "finger":1
      },
      {  
         "pitch":67,
         "offset":208896,
         "duration":2048,
         "velocity":60,
         "finger":5
      },
      {  
         "pitch":55,
         "offset":210944,
         "duration":2048,
         "velocity":60,
         "finger":1
      },
      {  
         "pitch":62,
         "offset":210944,
         "duration":2048,
         "velocity":60,
         "finger":5
      },
      {  
         "pitch":62,
         "offset":212992,
         "duration":1024,
         "velocity":60,
         "finger":1
      },
      {  
         "pitch":69,
         "offset":212992,
         "duration":1024,
         "velocity":60,
         "finger":5
      },
      {  
         "pitch":69,
         "offset":214528,
         "duration":512,
         "velocity":60,
         "finger":5
      },
      {  
         "pitch":40,
         "offset":217088,
         "duration":512,
         "velocity":60,
         "finger":1
      },
      {  
         "pitch":47,
         "offset":217600,
         "duration":512,
         "velocity":60,
         "finger":4
      },
      {  
         "pitch":52,
         "offset":218112,
         "duration":3072,
         "velocity":60,
         "finger":5
      }, 
      {  
         "pitch":81,
         "offset":3072,
         "duration":256,
         "velocity":60,
         "finger":9
      },
      {  
         "pitch":83,
         "offset":3328,
         "duration":256,
         "velocity":60,
         "finger":10
      },
      {  
         "pitch":81,
         "offset":3584,
         "duration":256,
         "velocity":60,
         "finger":9
      },
      {  
         "pitch":79,
         "offset":3840,
         "duration":256,
         "velocity":60,
         "finger":8
      },
      {  
         "pitch":74,
         "offset":4096,
         "duration":256,
         "velocity":60,
         "finger":6
      },
      {  
         "pitch":76,
         "offset":4352,
         "duration":256,
         "velocity":60,
         "finger":7
      },
      {  
         "pitch":79,
         "offset":4608,
         "duration":512,
         "velocity":60,
         "finger":8
      },
      {  
         "pitch":76,
         "offset":5376,
         "duration":512,
         "velocity":60,
         "finger":6
      },
      {  
         "pitch":83,
         "offset":5888,
         "duration":256,
         "velocity":60,
         "finger":10
      },
      {  
         "pitch":81,
         "offset":7168,
         "duration":256,
         "velocity":60,
         "finger":9
      },
      {  
         "pitch":83,
         "offset":7424,
         "duration":256,
         "velocity":60,
         "finger":10
      },
      {  
         "pitch":81,
         "offset":7680,
         "duration":256,
         "velocity":60,
         "finger":9
      },
      {  
         "pitch":79,
         "offset":7936,
         "duration":256,
         "velocity":60,
         "finger":8
      },
      {  
         "pitch":74,
         "offset":8192,
         "duration":256,
         "velocity":60,
         "finger":6
      },
      {  
         "pitch":76,
         "offset":8448,
         "duration":256,
         "velocity":60,
         "finger":7
      },
      {  
         "pitch":79,
         "offset":8704,
         "duration":512,
         "velocity":60,
         "finger":8
      },
      {  
         "pitch":76,
         "offset":9472,
         "duration":256,
         "velocity":60,
         "finger":6
      },
      {  
         "pitch":83,
         "offset":9728,
         "duration":512,
         "velocity":60,
         "finger":10
      },
      {  
         "pitch":81,
         "offset":10240,
         "duration":1024,
         "velocity":60,
         "finger":9
      },
      {  
         "pitch":81,
         "offset":11264,
         "duration":256,
         "velocity":60,
         "finger":9
      },
      {  
         "pitch":83,
         "offset":11520,
         "duration":256,
         "velocity":60,
         "finger":10
      },
      {  
         "pitch":81,
         "offset":11776,
         "duration":256,
         "velocity":60,
         "finger":9
      },
      {  
         "pitch":79,
         "offset":12032,
         "duration":256,
         "velocity":60,
         "finger":8
      },
      {  
         "pitch":74,
         "offset":12288,
         "duration":256,
         "velocity":60,
         "finger":6
      },
      {  
         "pitch":76,
         "offset":12544,
         "duration":256,
         "velocity":60,
         "finger":7
      },
      {  
         "pitch":79,
         "offset":12800,
         "duration":512,
         "velocity":60,
         "finger":8
      },
      {  
         "pitch":76,
         "offset":13568,
         "duration":512,
         "velocity":60,
         "finger":6
      },
      {  
         "pitch":79,
         "offset":14080,
         "duration":256,
         "velocity":60,
         "finger":7
      },
      {  
         "pitch":86,
         "offset":14336,
         "duration":256,
         "velocity":60,
         "finger":10
      },
      {  
         "pitch":83,
         "offset":14592,
         "duration":768,
         "velocity":60,
         "finger":9
      },
      {  
         "pitch":79,
         "offset":15360,
         "duration":256,
         "velocity":60,
         "finger":7
      },
      {  
         "pitch":81,
         "offset":15616,
         "duration":512,
         "velocity":60,
         "finger":8
      },
      {  
         "pitch":83,
         "offset":16128,
         "duration":256,
         "velocity":60,
         "finger":9
      },
      {
         "pitch":81,
         "offset":19456,
         "duration":256,
         "velocity":60,
         "finger":9
      },
      {  
         "pitch":83,
         "offset":19712,
         "duration":256,
         "velocity":60,
         "finger":10
      },
      {  
         "pitch":81,
         "offset":19968,
         "duration":256,
         "velocity":60,
         "finger":9
      },
      {  
         "pitch":79,
         "offset":20224,
         "duration":256,
         "velocity":60,
         "finger":8
      },
      {  
         "pitch":74,
         "offset":20480,
         "duration":256,
         "velocity":60,
         "finger":6
      },
      {  
         "pitch":76,
         "offset":20736,
         "duration":256,
         "velocity":60,
         "finger":7
      },
      {  
         "pitch":79,
         "offset":20992,
         "duration":512,
         "velocity":60,
         "finger":8
      },
      {  
         "pitch":76,
         "offset":21760,
         "duration":512,
         "velocity":60,
         "finger":6
      },
      {  
         "pitch":83,
         "offset":22272,
         "duration":256,
         "velocity":60,
         "finger":10
      },
      {  
         "pitch":81,
         "offset":23552,
         "duration":256,
         "velocity":60,
         "finger":9
      },
      {  
         "pitch":83,
         "offset":23808,
         "duration":256,
         "velocity":60,
         "finger":10
      },
      {  
         "pitch":81,
         "offset":24064,
         "duration":256,
         "velocity":60,
         "finger":9
      },
      {  
         "pitch":79,
         "offset":24320,
         "duration":256,
         "velocity":60,
         "finger":8
      },
      {  
         "pitch":74,
         "offset":24576,
         "duration":256,
         "velocity":60,
         "finger":6
      },
      {  
         "pitch":76,
         "offset":24832,
         "duration":256,
         "velocity":60,
         "finger":7
      },
      {  
         "pitch":79,
         "offset":25088,
         "duration":512,
         "velocity":60,
         "finger":8
      },
      {  
         "pitch":76,
         "offset":25856,
         "duration":256,
         "velocity":60,
         "finger":6
      },
      {  
         "pitch":83,
         "offset":26112,
         "duration":512,
         "velocity":60,
         "finger":10
      },
      {  
         "pitch":81,
         "offset":26624,
         "duration":1024,
         "velocity":60,
         "finger":9
      },
      {  
         "pitch":81,
         "offset":27648,
         "duration":256,
         "velocity":60,
         "finger":9
      },
      {  
         "pitch":83,
         "offset":27904,
         "duration":256,
         "velocity":60,
         "finger":10
      },
      {  
         "pitch":81,
         "offset":28160,
         "duration":256,
         "velocity":60,
         "finger":9
      },
      {  
         "pitch":79,
         "offset":28416,
         "duration":256,
         "velocity":60,
         "finger":8
      },
      {  
         "pitch":74,
         "offset":28672,
         "duration":256,
         "velocity":60,
         "finger":6
      },
      {  
         "pitch":76,
         "offset":28928,
         "duration":256,
         "velocity":60,
         "finger":7
      },
      {  
         "pitch":79,
         "offset":29184,
         "duration":512,
         "velocity":60,
         "finger":8
      },
      {  
         "pitch":76,
         "offset":29952,
         "duration":512,
         "velocity":60,
         "finger":6
      },
      {  
         "pitch":79,
         "offset":30464,
         "duration":256,
         "velocity":60,
         "finger":7
      },
      {  
         "pitch":86,
         "offset":30720,
         "duration":256,
         "velocity":60,
         "finger":10
      },
      {  
         "pitch":83,
         "offset":30976,
         "duration":768,
         "velocity":60,
         "finger":9
      },
      {  
         "pitch":79,
         "offset":31744,
         "duration":256,
         "velocity":60,
         "finger":7
      },
      {  
         "pitch":81,
         "offset":32000,
         "duration":512,
         "velocity":60,
         "finger":8
      },
      {  
         "pitch":83,
         "offset":32512,
         "duration":256,
         "velocity":60,
         "finger":9
      },
      {  
         "pitch":71,
         "offset":35328,
         "duration":256,
         "velocity":80,
         "finger":10
      },
      {  
         "pitch":71,
         "offset":35584,
         "duration":256,
         "velocity":80,
         "finger":10
      },
      {  
         "pitch":69,
         "offset":35840,
         "duration":256,
         "velocity":80,
         "finger":9
      },
      {  
         "pitch":71,
         "offset":36096,
         "duration":256,
         "velocity":80,
         "finger":10
      },
      {  
         "pitch":69,
         "offset":36352,
         "duration":256,
         "velocity":80,
         "finger":9
      },
      {  
         "pitch":67,
         "offset":36608,
         "duration":256,
         "velocity":80,
         "finger":8
      },
      {  
         "pitch":67,
         "offset":36864,
         "duration":768,
         "velocity":80,
         "finger":8
      },
      {  
         "pitch":64,
         "offset":37632,
         "duration":256,
         "velocity":80,
         "finger":6
      },
      {  
         "pitch":67,
         "offset":37888,
         "duration":256,
         "velocity":80,
         "finger":8
      },
      {  
         "pitch":64,
         "offset":38144,
         "duration":256,
         "velocity":80,
         "finger":6
      },
      {  
         "pitch":67,
         "offset":38400,
         "duration":512,
         "velocity":80,
         "finger":8
      },
      {  
         "pitch":62,
         "offset":38912,
         "duration":768,
         "velocity":60,
         "finger":6
      },
      {  
         "pitch":62,
         "offset":39680,
         "duration":256,
         "velocity":80,
         "finger":6
      },
      {  
         "pitch":69,
         "offset":39936,
         "duration":256,
         "velocity":80,
         "finger":9
      },
      {  
         "pitch":71,
         "offset":40192,
         "duration":256,
         "velocity":80,
         "finger":10
      },
      {  
         "pitch":69,
         "offset":40448,
         "duration":256,
         "velocity":80,
         "finger":9
      },
      {  
         "pitch":67,
         "offset":40704,
         "duration":256,
         "velocity":80,
         "finger":8
      },
      {  
         "pitch":69,
         "offset":40960,
         "duration":512,
         "velocity":80,
         "finger":9
      },
      {  
         "pitch":69,
         "offset":41472,
         "duration":256,
         "velocity":80,
         "finger":9
      },
      {  
         "pitch":67,
         "offset":41728,
         "duration":256,
         "velocity":80,
         "finger":8
      },
      {  
         "pitch":71,
         "offset":41984,
         "duration":512,
         "velocity":80,
         "finger":10
      },
      {  
         "pitch":69,
         "offset":42496,
         "duration":256,
         "velocity":80,
         "finger":9
      },
      {  
         "pitch":69,
         "offset":42752,
         "duration":256,
         "velocity":80,
         "finger":9
      },
      {  
         "pitch":67,
         "offset":43264,
         "duration":768,
         "velocity":80,
         "finger":8
      },
      {  
         "pitch":69,
         "offset":44032,
         "duration":256,
         "velocity":80,
         "finger":9
      },
      {  
         "pitch":71,
         "offset":44288,
         "duration":256,
         "velocity":80,
         "finger":10
      },
      {  
         "pitch":69,
         "offset":44544,
         "duration":256,
         "velocity":80,
         "finger":9
      },
      {  
         "pitch":67,
         "offset":44800,
         "duration":256,
         "velocity":80,
         "finger":8
      },
      {  
         "pitch":69,
         "offset":45056,
         "duration":256,
         "velocity":80,
         "finger":9
      },
      {  
         "pitch":67,
         "offset":45312,
         "duration":256,
         "velocity":80,
         "finger":8
      },
      {  
         "pitch":64,
         "offset":45568,
         "duration":256,
         "velocity":80,
         "finger":7
      },
      {  
         "pitch":64,
         "offset":45824,
         "duration":256,
         "velocity":80,
         "finger":7
      },
      {  
         "pitch":64,
         "offset":46080,
         "duration":256,
         "velocity":80,
         "finger":7
      },
      {  
         "pitch":62,
         "offset":46336,
         "duration":256,
         "velocity":80,
         "finger":6
      },
      {  
         "pitch":67,
         "offset":46592,
         "duration":512,
         "velocity":80,
         "finger":8
      },
      {  
         "pitch":62,
         "offset":49152,
         "duration":1024,
         "velocity":80,
         "finger":6
      },
      {  
         "pitch":66,
         "offset":49152,
         "duration":1024,
         "velocity":80,
         "finger":8
      },
      {  
         "pitch":62,
         "offset":50176,
         "duration":1024,
         "velocity":80,
         "finger":6
      },
      {  
         "pitch":66,
         "offset":50176,
         "duration":1024,
         "velocity":80,
         "finger":8
      },
      {  
         "pitch":62,
         "offset":51200,
         "duration":512,
         "velocity":80,
         "finger":6
      },
      {  
         "pitch":66,
         "offset":51200,
         "duration":512,
         "velocity":80,
         "finger":8
      },
      {  
         "pitch":71,
         "offset":51712,
         "duration":256,
         "velocity":80,
         "finger":10
      },
      {  
         "pitch":71,
         "offset":51968,
         "duration":256,
         "velocity":80,
         "finger":10
      },
      {  
         "pitch":71,
         "offset":52224,
         "duration":512,
         "velocity":80,
         "finger":10
      },
      {  
         "pitch":69,
         "offset":52736,
         "duration":256,
         "velocity":80,
         "finger":9
      },
      {
         "pitch":67,
         "offset":52992,
         "duration":256,
         "velocity":80,
         "finger":8
      },
      {  
         "pitch":67,
         "offset":53248,
         "duration":512,
         "velocity":80,
         "finger":8
      },
      {  
         "pitch":67,
         "offset":53760,
         "duration":256,
         "velocity":80,
         "finger":8
      },
      {  
         "pitch":64,
         "offset":54016,
         "duration":256,
         "velocity":80,
         "finger":6
      },
      {  
         "pitch":67,
         "offset":54272,
         "duration":256,
         "velocity":80,
         "finger":8
      },
      {  
         "pitch":64,
         "offset":54528,
         "duration":256,
         "velocity":80,
         "finger":6
      },
      {  
         "pitch":67,
         "offset":54784,
         "duration":512,
         "velocity":80,
         "finger":8
      },
      {  
         "pitch":69,
         "offset":56320,
         "duration":256,
         "velocity":80,
         "finger":9
      },
      {  
         "pitch":71,
         "offset":56576,
         "duration":256,
         "velocity":80,
         "finger":10
      },
      {  
         "pitch":69,
         "offset":56832,
         "duration":256,
         "velocity":80,
         "finger":9
      },
      {  
         "pitch":67,
         "offset":57088,
         "duration":256,
         "velocity":80,
         "finger":8
      },
      {  
         "pitch":69,
         "offset":57344,
         "duration":512,
         "velocity":80,
         "finger":9
      },
      {  
         "pitch":69,
         "offset":57856,
         "duration":256,
         "velocity":80,
         "finger":9
      },
      {  
         "pitch":67,
         "offset":58112,
         "duration":256,
         "velocity":80,
         "finger":8
      },
      {  
         "pitch":71,
         "offset":58368,
         "duration":512,
         "velocity":80,
         "finger":10
      },
      {  
         "pitch":69,
         "offset":58880,
         "duration":256,
         "velocity":80,
         "finger":9
      },
      {  
         "pitch":69,
         "offset":59136,
         "duration":256,
         "velocity":80,
         "finger":9
      },
      {  
         "pitch":67,
         "offset":59648,
         "duration":768,
         "velocity":80,
         "finger":8
      },
      {  
         "pitch":69,
         "offset":60416,
         "duration":256,
         "velocity":80,
         "finger":9
      },
      {  
         "pitch":71,
         "offset":60672,
         "duration":256,
         "velocity":80,
         "finger":10
      },
      {  
         "pitch":69,
         "offset":60928,
         "duration":256,
         "velocity":80,
         "finger":9
      },
      {  
         "pitch":67,
         "offset":61184,
         "duration":256,
         "velocity":80,
         "finger":8
      },
      {  
         "pitch":69,
         "offset":61440,
         "duration":256,
         "velocity":80,
         "finger":9
      },
      {  
         "pitch":67,
         "offset":61696,
         "duration":256,
         "velocity":80,
         "finger":8
      },
      {  
         "pitch":64,
         "offset":61952,
         "duration":256,
         "velocity":80,
         "finger":7
      },
      {  
         "pitch":64,
         "offset":62208,
         "duration":256,
         "velocity":80,
         "finger":7
      },
      {  
         "pitch":64,
         "offset":62464,
         "duration":256,
         "velocity":80,
         "finger":7
      },
      {  
         "pitch":62,
         "offset":62720,
         "duration":256,
         "velocity":80,
         "finger":6
      },
      {  
         "pitch":67,
         "offset":62976,
         "duration":512,
         "velocity":80,
         "finger":8
      },
      {  
         "pitch":62,
         "offset":65536,
         "duration":1024,
         "velocity":80,
         "finger":6
      },
      {  
         "pitch":66,
         "offset":65536,
         "duration":1024,
         "velocity":80,
         "finger":8
      },
      {  
         "pitch":62,
         "offset":66560,
         "duration":1024,
         "velocity":80,
         "finger":6
      },
      {  
         "pitch":66,
         "offset":66560,
         "duration":1024,
         "velocity":80,
         "finger":8
      },
      {  
         "pitch":62,
         "offset":67584,
         "duration":512,
         "velocity":80,
         "finger":6
      },
      {  
         "pitch":66,
         "offset":67584,
         "duration":512,
         "velocity":80,
         "finger":8
      },
      {  
         "pitch":69,
         "offset":68096,
         "duration":256,
         "velocity":80,
         "finger":9
      },
      {  
         "pitch":67,
         "offset":68352,
         "duration":256,
         "velocity":80,
         "finger":8
      },
      {  
         "pitch":71,
         "offset":68608,
         "duration":256,
         "velocity":80,
         "finger":10
      },
      {  
         "pitch":69,
         "offset":68864,
         "duration":512,
         "velocity":80,
         "finger":9
      },
      {  
         "pitch":69,
         "offset":69376,
         "duration":256,
         "velocity":80,
         "finger":9
      },
      {  
         "pitch":67,
         "offset":69888,
         "duration":256,
         "velocity":80,
         "finger":8
      },
      {  
         "pitch":64,
         "offset":70144,
         "duration":512,
         "velocity":80,
         "finger":6
      },
      {  
         "pitch":60,
         "offset":71680,
         "duration":1024,
         "velocity":80,
         "finger":6
      },
      {  
         "pitch":64,
         "offset":71680,
         "duration":1024,
         "velocity":80,
         "finger":8
      },
      {  
         "pitch":60,
         "offset":72704,
         "duration":1024,
         "velocity":80,
         "finger":6
      },
      {  
         "pitch":64,
         "offset":72704,
         "duration":1024,
         "velocity":80,
         "finger":8
      },
      {  
         "pitch":62,
         "offset":73728,
         "duration":1024,
         "velocity":80,
         "finger":7
      },
      {  
         "pitch":66,
         "offset":73728,
         "duration":1024,
         "velocity":80,
         "finger":9
      },
      {  
         "pitch":62,
         "offset":74752,
         "duration":1024,
         "velocity":80,
         "finger":7
      },
      {  
         "pitch":66,
         "offset":74752,
         "duration":1024,
         "velocity":80,
         "finger":9
      },
      {  
         "pitch":59,
         "offset":75776,
         "duration":1024,
         "velocity":80,
         "finger":6
      },
      {  
         "pitch":62,
         "offset":75776,
         "duration":1024,
         "velocity":80,
         "finger":7
      },
      {  
         "pitch":59,
         "offset":76800,
         "duration":1024,
         "velocity":80,
         "finger":6
      },
      {  
         "pitch":62,
         "offset":76800,
         "duration":1024,
         "velocity":80,
         "finger":7
      },
      {  
         "pitch":64,
         "offset":77824,
         "duration":1024,
         "velocity":80,
         "finger":8
      },
      {  
         "pitch":67,
         "offset":77824,
         "duration":1024,
         "velocity":80,
         "finger":10
      },
      {  
         "pitch":64,
         "offset":78848,
         "duration":1024,
         "velocity":80,
         "finger":8
      },
      {  
         "pitch":67,
         "offset":78848,
         "duration":1024,
         "velocity":80,
         "finger":10
      },
      {  
         "pitch":60,
         "offset":79872,
         "duration":1024,
         "velocity":80,
         "finger":6
      },
      {  
         "pitch":64,
         "offset":79872,
         "duration":1024,
         "velocity":80,
         "finger":8
      },
      {  
         "pitch":60,
         "offset":80896,
         "duration":1024,
         "velocity":80,
         "finger":6
      },
      {  
         "pitch":64,
         "offset":80896,
         "duration":1024,
         "velocity":80,
         "finger":8
      },
      {  
         "pitch":62,
         "offset":81920,
         "duration":1024,
         "velocity":80,
         "finger":7
      },
      {  
         "pitch":66,
         "offset":81920,
         "duration":1024,
         "velocity":80,
         "finger":9
      },
      {  
         "pitch":62,
         "offset":82944,
         "duration":1024,
         "velocity":80,
         "finger":7
      },
      {  
         "pitch":66,
         "offset":82944,
         "duration":1024,
         "velocity":80,
         "finger":9
      },
      {  
         "pitch":62,
         "offset":83968,
         "duration":1024,
         "velocity":80,
         "finger":7
      },
      {  
         "pitch":66,
         "offset":83968,
         "duration":1024,
         "velocity":80,
         "finger":9
      },
      {  
         "pitch":62,
         "offset":84992,
         "duration":1024,
         "velocity":80,
         "finger":7
      },
      {  
         "pitch":66,
         "offset":84992,
         "duration":1024,
         "velocity":80,
         "finger":9
      },
      {  
         "pitch":71,
         "offset":86016,
         "duration":512,
         "velocity":80,
         "finger":8
      },
      {  
         "pitch":71,
         "offset":86528,
         "duration":512,
         "velocity":80,
         "finger":8
      },
      {  
         "pitch":71,
         "offset":87040,
         "duration":256,
         "velocity":80,
         "finger":8
      },
      {  
         "pitch":69,
         "offset":87296,
         "duration":256,
         "velocity":80,
         "finger":7
      },
      {  
         "pitch":67,
         "offset":87552,
         "duration":256,
         "velocity":80,
         "finger":6
      },
      {  
         "pitch":67,
         "offset":87808,
         "duration":256,
         "velocity":80,
         "finger":6
      },
      {  
         "pitch":72,
         "offset":88832,
         "duration":256,
         "velocity":80,
         "finger":9
      },
      {  
         "pitch":71,
         "offset":89344,
         "duration":768,
         "velocity":80,
         "finger":8
      },
      {  
         "pitch":69,
         "offset":90112,
         "duration":768,
         "velocity":80,
         "finger":7
      },
      {  
         "pitch":69,
         "offset":90880,
         "duration":256,
         "velocity":80,
         "finger":7
      },
      {  
         "pitch":69,
         "offset":91136,
         "duration":256,
         "velocity":80,
         "finger":7
      },
      {  
         "pitch":67,
         "offset":91392,
         "duration":256,
         "velocity":80,
         "finger":6
      },
      {  
         "pitch":66,
         "offset":91648,
         "duration":512,
         "velocity":80,
         "finger":7
      },
      {  
         "pitch":66,
         "offset":92160,
         "duration":768,
         "velocity":80,
         "finger":7
      },
      {  
         "pitch":62,
         "offset":92928,
         "duration":256,
         "velocity":80,
         "finger":6
      },
      {  
         "pitch":71,
         "offset":93184,
         "duration":512,
         "velocity":80,
         "finger":10
      },
      {  
         "pitch":69,
         "offset":93696,
         "duration":512,
         "velocity":80,
         "finger":9
      },
      {  
         "pitch":67,
         "offset":94208,
         "duration":768,
         "velocity":80,
         "finger":8
      },
      {  
         "pitch":64,
         "offset":94976,
         "duration":256,
         "velocity":80,
         "finger":6
      },
      {  
         "pitch":71,
         "offset":95232,
         "duration":512,
         "velocity":80,
         "finger":10
      },
      {  
         "pitch":69,
         "offset":95744,
         "duration":256,
         "velocity":80,
         "finger":9
      },
      {  
         "pitch":67,
         "offset":96000,
         "duration":256,
         "velocity":80,
         "finger":8
      },
      {  
         "pitch":64,
         "offset":96256,
         "duration":1024,
         "velocity":80,
         "finger":7
      },
      {  
         "pitch":62,
         "offset":98304,
         "duration":1024,
         "velocity":80,
         "finger":6
      },
      {  
         "pitch":66,
         "offset":98304,
         "duration":1024,
         "velocity":80,
         "finger":8
      },
      {  
         "pitch":62,
         "offset":99328,
         "duration":1024,
         "velocity":80,
         "finger":6
      },
      {  
         "pitch":66,
         "offset":99328,
         "duration":1024,
         "velocity":80,
         "finger":8
      },
      {  
         "pitch":62,
         "offset":100352,
         "duration":1024,
         "velocity":80,
         "finger":6
      },
      {  
         "pitch":66,
         "offset":100352,
         "duration":1024,
         "velocity":80,
         "finger":8
      },
      {  
         "pitch":62,
         "offset":101376,
         "duration":512,
         "velocity":80,
         "finger":6
      },
      {  
         "pitch":66,
         "offset":101376,
         "duration":512,
         "velocity":80,
         "finger":8
      },
      {  
         "pitch":71,
         "offset":102144,
         "duration":256,
         "velocity":80,
         "finger":8
      },
      {  
         "pitch":71,
         "offset":102400,
         "duration":512,
         "velocity":80,
         "finger":8
      },
      {  
         "pitch":71,
         "offset":102912,
         "duration":512,
         "velocity":80,
         "finger":8
      },
      {  
         "pitch":71,
         "offset":103424,
         "duration":256,
         "velocity":80,
         "finger":8
      },
      {  
         "pitch":69,
         "offset":103680,
         "duration":256,
         "velocity":80,
         "finger":7
      },
      {  
         "pitch":67,
         "offset":103936,
         "duration":256,
         "velocity":80,
         "finger":6
      },
      {  
         "pitch":67,
         "offset":104192,
         "duration":256,
         "velocity":80,
         "finger":6
      },
      {  
         "pitch":72,
         "offset":105216,
         "duration":256,
         "velocity":80,
         "finger":9
      },
      {  
         "pitch":71,
         "offset":105728,
         "duration":768,
         "velocity":80,
         "finger":8
      },
      {  
         "pitch":69,
         "offset":106496,
         "duration":768,
         "velocity":80,
         "finger":7
      },
      {  
         "pitch":69,
         "offset":107264,
         "duration":256,
         "velocity":80,
         "finger":7
      },
      {  
         "pitch":69,
         "offset":107520,
         "duration":256,
         "velocity":80,
         "finger":7
      },
      {  
         "pitch":67,
         "offset":107776,
         "duration":256,
         "velocity":80,
         "finger":6
      },
      {  
         "pitch":66,
         "offset":108032,
         "duration":512,
         "velocity":80,
         "finger":7
      },
      {  
         "pitch":66,
         "offset":108544,
         "duration":768,
         "velocity":80,
         "finger":7
      },
      {  
         "pitch":62,
         "offset":109312,
         "duration":256,
         "velocity":80,
         "finger":6
      },
      {  
         "pitch":71,
         "offset":109568,
         "duration":512,
         "velocity":80,
         "finger":10
      },
      {  
         "pitch":71,
         "offset":110080,
         "duration":512,
         "velocity":80,
         "finger":10
      },
      {  
         "pitch":71,
         "offset":110592,
         "duration":768,
         "velocity":80,
         "finger":10
      },
      {  
         "pitch":67,
         "offset":111360,
         "duration":256,
         "velocity":80,
         "finger":8
      },
      {  
         "pitch":69,
         "offset":112128,
         "duration":256,
         "velocity":80,
         "finger":9
      },
      {  
         "pitch":67,
         "offset":112384,
         "duration":256,
         "velocity":80,
         "finger":8
      },
      {  
         "pitch":62,
         "offset":114688,
         "duration":1024,
         "velocity":80,
         "finger":6
      },
      {  
         "pitch":66,
         "offset":114688,
         "duration":1024,
         "velocity":80,
         "finger":8
      },
      {  
         "pitch":62,
         "offset":115712,
         "duration":1024,
         "velocity":80,
         "finger":6
      },
      {  
         "pitch":66,
         "offset":115712,
         "duration":1024,
         "velocity":80,
         "finger":8
      },
      {  
         "pitch":62,
         "offset":116736,
         "duration":512,
         "velocity":80,
         "finger":6
      },
      {  
         "pitch":66,
         "offset":116736,
         "duration":512,
         "velocity":80,
         "finger":8
      },
      {  
         "pitch":71,
         "offset":117248,
         "duration":256,
         "velocity":80,
         "finger":10
      },
      {  
         "pitch":71,
         "offset":117504,
         "duration":256,
         "velocity":80,
         "finger":10
      },
      {  
         "pitch":71,
         "offset":117760,
         "duration":512,
         "velocity":80,
         "finger":10
      },
      {  
         "pitch":69,
         "offset":118272,
         "duration":256,
         "velocity":80,
         "finger":9
      },
      {  
         "pitch":67,
         "offset":118528,
         "duration":256,
         "velocity":80,
         "finger":8
      },
      {  
         "pitch":67,
         "offset":118784,
         "duration":512,
         "velocity":80,
         "finger":8
      },
      {  
         "pitch":67,
         "offset":119296,
         "duration":256,
         "velocity":80,
         "finger":8
      },
      {  
         "pitch":64,
         "offset":119552,
         "duration":256,
         "velocity":80,
         "finger":6
      },
      {  
         "pitch":67,
         "offset":119808,
         "duration":256,
         "velocity":80,
         "finger":8
      },
      {  
         "pitch":64,
         "offset":120064,
         "duration":256,
         "velocity":80,
         "finger":6
      },
      {  
         "pitch":67,
         "offset":120320,
         "duration":512,
         "velocity":80,
         "finger":8
      },
      {  
         "pitch":69,
         "offset":121856,
         "duration":256,
         "velocity":80,
         "finger":9
      },
      {  
         "pitch":71,
         "offset":122112,
         "duration":256,
         "velocity":80,
         "finger":10
      },
      {  
         "pitch":69,
         "offset":122368,
         "duration":256,
         "velocity":80,
         "finger":9
      },
      {  
         "pitch":67,
         "offset":122624,
         "duration":256,
         "velocity":80,
         "finger":8
      },
      {  
         "pitch":69,
         "offset":122880,
         "duration":512,
         "velocity":80,
         "finger":9
      },
      {  
         "pitch":69,
         "offset":123392,
         "duration":256,
         "velocity":80,
         "finger":9
      },
      {  
         "pitch":67,
         "offset":123648,
         "duration":256,
         "velocity":80,
         "finger":8
      },
      {  
         "pitch":71,
         "offset":123904,
         "duration":512,
         "velocity":80,
         "finger":10
      },
      {  
         "pitch":69,
         "offset":124416,
         "duration":256,
         "velocity":80,
         "finger":9
      },
      {  
         "pitch":69,
         "offset":124672,
         "duration":256,
         "velocity":80,
         "finger":9
      },
      {  
         "pitch":67,
         "offset":125184,
         "duration":768,
         "velocity":80,
         "finger":8
      },
      {  
         "pitch":69,
         "offset":125952,
         "duration":256,
         "velocity":80,
         "finger":9
      },
      {  
         "pitch":71,
         "offset":126208,
         "duration":256,
         "velocity":80,
         "finger":10
      },
      {  
         "pitch":69,
         "offset":126464,
         "duration":256,
         "velocity":80,
         "finger":9
      },
      {  
         "pitch":67,
         "offset":126720,
         "duration":256,
         "velocity":80,
         "finger":8
      },
      {  
         "pitch":69,
         "offset":126976,
         "duration":256,
         "velocity":80,
         "finger":9
      },
      {  
         "pitch":67,
         "offset":127232,
         "duration":256,
         "velocity":80,
         "finger":8
      },
      {  
         "pitch":64,
         "offset":127488,
         "duration":256,
         "velocity":80,
         "finger":7
      },
      {  
         "pitch":64,
         "offset":127744,
         "duration":256,
         "velocity":80,
         "finger":7
      },
      {  
         "pitch":64,
         "offset":128000,
         "duration":256,
         "velocity":80,
         "finger":7
      },
      {  
         "pitch":62,
         "offset":128256,
         "duration":256,
         "velocity":80,
         "finger":6
      },
      {  
         "pitch":67,
         "offset":128512,
         "duration":512,
         "velocity":80,
         "finger":10
      },
      {  
         "pitch":62,
         "offset":131072,
         "duration":1024,
         "velocity":80,
         "finger":6
      },
      {  
         "pitch":66,
         "offset":131072,
         "duration":1024,
         "velocity":80,
         "finger":8
      },
      {  
         "pitch":62,
         "offset":132096,
         "duration":1024,
         "velocity":80,
         "finger":6
      },
      {  
         "pitch":66,
         "offset":132096,
         "duration":1024,
         "velocity":80,
         "finger":8
      },
      {  
         "pitch":62,
         "offset":133120,
         "duration":512,
         "velocity":80,
         "finger":6
      },
      {  
         "pitch":66,
         "offset":133120,
         "duration":512,
         "velocity":80,
         "finger":8
      },
      {  
         "pitch":71,
         "offset":133632,
         "duration":256,
         "velocity":80,
         "finger":10
      },
      {  
         "pitch":71,
         "offset":133888,
         "duration":256,
         "velocity":80,
         "finger":10
      },
      {  
         "pitch":71,
         "offset":134144,
         "duration":512,
         "velocity":80,
         "finger":10
      },
      {  
         "pitch":69,
         "offset":134656,
         "duration":256,
         "velocity":80,
         "finger":9
      },
      {  
         "pitch":67,
         "offset":134912,
         "duration":256,
         "velocity":80,
         "finger":8
      },
      {  
         "pitch":67,
         "offset":135168,
         "duration":512,
         "velocity":80,
         "finger":8
      },
      {  
         "pitch":67,
         "offset":135680,
         "duration":256,
         "velocity":80,
         "finger":8
      },
      {  
         "pitch":64,
         "offset":135936,
         "duration":256,
         "velocity":80,
         "finger":6
      },
      {  
         "pitch":67,
         "offset":136192,
         "duration":256,
         "velocity":80,
         "finger":8
      },
      {  
         "pitch":64,
         "offset":136448,
         "duration":256,
         "velocity":80,
         "finger":6
      },
      {  
         "pitch":67,
         "offset":136704,
         "duration":512,
         "velocity":80,
         "finger":8
      },
      {  
         "pitch":69,
         "offset":138240,
         "duration":256,
         "velocity":80,
         "finger":9
      },
      {  
         "pitch":71,
         "offset":138496,
         "duration":256,
         "velocity":80,
         "finger":10
      },
      {  
         "pitch":69,
         "offset":138752,
         "duration":256,
         "velocity":80,
         "finger":9
      },
      {  
         "pitch":67,
         "offset":139008,
         "duration":256,
         "velocity":80,
         "finger":8
      },
      {  
         "pitch":69,
         "offset":139264,
         "duration":512,
         "velocity":80,
         "finger":9
      },
      {  
         "pitch":69,
         "offset":139776,
         "duration":256,
         "velocity":80,
         "finger":9
      },
      {  
         "pitch":67,
         "offset":140032,
         "duration":256,
         "velocity":80,
         "finger":8
      },
      {  
         "pitch":71,
         "offset":140288,
         "duration":512,
         "velocity":80,
         "finger":10
      },
      {  
         "pitch":69,
         "offset":140800,
         "duration":256,
         "velocity":80,
         "finger":9
      },
      {  
         "pitch":69,
         "offset":141056,
         "duration":256,
         "velocity":80,
         "finger":9
      },
      {  
         "pitch":67,
         "offset":141568,
         "duration":768,
         "velocity":80,
         "finger":8
      },
      {  
         "pitch":69,
         "offset":142336,
         "duration":256,
         "velocity":80,
         "finger":9
      },
      {  
         "pitch":71,
         "offset":142592,
         "duration":256,
         "velocity":80,
         "finger":10
      },
      {  
         "pitch":69,
         "offset":142848,
         "duration":256,
         "velocity":80,
         "finger":9
      },
      {  
         "pitch":67,
         "offset":143104,
         "duration":256,
         "velocity":80,
         "finger":8
      },
      {  
         "pitch":69,
         "offset":143360,
         "duration":256,
         "velocity":80,
         "finger":9
      },
      {  
         "pitch":67,
         "offset":143616,
         "duration":256,
         "velocity":80,
         "finger":8
      },
      {  
         "pitch":64,
         "offset":143872,
         "duration":256,
         "velocity":80,
         "finger":7
      },
      {  
         "pitch":64,
         "offset":144128,
         "duration":256,
         "velocity":80,
         "finger":7
      },
      {  
         "pitch":64,
         "offset":144384,
         "duration":256,
         "velocity":80,
         "finger":7
      },
      {  
         "pitch":62,
         "offset":144640,
         "duration":256,
         "velocity":80,
         "finger":6
      },
      {  
         "pitch":67,
         "offset":144896,
         "duration":512,
         "velocity":80,
         "finger":10
      },
      {  
         "pitch":62,
         "offset":147456,
         "duration":1024,
         "velocity":80,
         "finger":6
      },
      {  
         "pitch":66,
         "offset":147456,
         "duration":1024,
         "velocity":80,
         "finger":8
      },
      {  
         "pitch":62,
         "offset":148480,
         "duration":1024,
         "velocity":80,
         "finger":6
      },
      {  
         "pitch":66,
         "offset":148480,
         "duration":1024,
         "velocity":80,
         "finger":8
      },
      {  
         "pitch":62,
         "offset":149504,
         "duration":1024,
         "velocity":80,
         "finger":6
      },
      {  
         "pitch":66,
         "offset":149504,
         "duration":1024,
         "velocity":80,
         "finger":8
      },
      {  
         "pitch":67,
         "offset":150528,
         "duration":512,
         "velocity":80,
         "finger":7
      },
      {  
         "pitch":69,
         "offset":151040,
         "duration":512,
         "velocity":80,
         "finger":8
      },
      {  
         "pitch":71,
         "offset":151552,
         "duration":1536,
         "velocity":80,
         "finger":9
      },
      {  
         "pitch":69,
         "offset":153088,
         "duration":256,
         "velocity":80,
         "finger":8
      },
      {  
         "pitch":71,
         "offset":153344,
         "duration":256,
         "velocity":80,
         "finger":9
      },
      {  
         "pitch":72,
         "offset":153600,
         "duration":1024,
         "velocity":80,
         "finger":10
      },
      {  
         "pitch":71,
         "offset":154624,
         "duration":1024,
         "velocity":80,
         "finger":9
      },
      {  
         "pitch":69,
         "offset":155648,
         "duration":1024,
         "velocity":80,
         "finger":8
      },
      {  
         "pitch":62,
         "offset":156672,
         "duration":1024,
         "velocity":80,
         "finger":6
      },
      {  
         "pitch":66,
         "offset":156672,
         "duration":1024,
         "velocity":80,
         "finger":7
      },
      {  
         "pitch":62,
         "offset":157696,
         "duration":1024,
         "velocity":80,
         "finger":6
      },
      {  
         "pitch":66,
         "offset":157696,
         "duration":1024,
         "velocity":80,
         "finger":7
      },
      {  
         "pitch":67,
         "offset":158720,
         "duration":512,
         "velocity":80,
         "finger":7
      },
      {  
         "pitch":69,
         "offset":159232,
         "duration":512,
         "velocity":80,
         "finger":8
      },
      {  
         "pitch":71,
         "offset":159744,
         "duration":1536,
         "velocity":80,
         "finger":9
      },
      {  
         "pitch":69,
         "offset":161280,
         "duration":256,
         "velocity":80,
         "finger":8
      },
      {  
         "pitch":71,
         "offset":161536,
         "duration":256,
         "velocity":80,
         "finger":9
      },
      {  
         "pitch":72,
         "offset":161792,
         "duration":1024,
         "velocity":80,
         "finger":10
      },
      {  
         "pitch":71,
         "offset":162816,
         "duration":1024,
         "velocity":80,
         "finger":9
      },
      {  
         "pitch":69,
         "offset":163840,
         "duration":1024,
         "velocity":80,
         "finger":8
      },
      {  
         "pitch":62,
         "offset":164864,
         "duration":1024,
         "velocity":80,
         "finger":6
      },
      {  
         "pitch":66,
         "offset":164864,
         "duration":1024,
         "velocity":80,
         "finger":7
      },
      {  
         "pitch":62,
         "offset":165888,
         "duration":1024,
         "velocity":80,
         "finger":6
      },
      {  
         "pitch":66,
         "offset":165888,
         "duration":1024,
         "velocity":80,
         "finger":7
      },
      {  
         "pitch":74,
         "offset":166912,
         "duration":512,
         "velocity":80,
         "finger":10
      },
      {  
         "pitch":72,
         "offset":167424,
         "duration":512,
         "velocity":80,
         "finger":9
      },
      {  
         "pitch":71,
         "offset":167936,
         "duration":1536,
         "velocity":80,
         "finger":8
      },
      {  
         "pitch":69,
         "offset":169472,
         "duration":256,
         "velocity":80,
         "finger":7
      },
      {  
         "pitch":71,
         "offset":169728,
         "duration":256,
         "velocity":80,
         "finger":8
      },
      {  
         "pitch":72,
         "offset":169984,
         "duration":1024,
         "velocity":80,
         "finger":9
      },
      {  
         "pitch":64,
         "offset":171008,
         "duration":1024,
         "velocity":80,
         "finger":7
      },
      {  
         "pitch":66,
         "offset":172032,
         "duration":1024,
         "velocity":80,
         "finger":8
      },
      {  
         "pitch":62,
         "offset":173056,
         "duration":1024,
         "velocity":80,
         "finger":6
      },
      {  
         "pitch":66,
         "offset":173056,
         "duration":1024,
         "velocity":80,
         "finger":8
      },
      {  
         "pitch":62,
         "offset":174080,
         "duration":1024,
         "velocity":80,
         "finger":6
      },
      {  
         "pitch":66,
         "offset":174080,
         "duration":1024,
         "velocity":80,
         "finger":8
      },
      {  
         "pitch":62,
         "offset":175104,
         "duration":1024,
         "velocity":80,
         "finger":6
      },
      {  
         "pitch":66,
         "offset":175104,
         "duration":1024,
         "velocity":80,
         "finger":8
      },
      {  
         "pitch":67,
         "offset":176128,
         "duration":2048,
         "velocity":80,
         "finger":9
      },
      {  
         "pitch":69,
         "offset":179712,
         "duration":512,
         "velocity":80,
         "finger":10
      },
      {  
         "pitch":62,
         "offset":180224,
         "duration":1024,
         "velocity":80,
         "finger":6
      },
      {  
         "pitch":66,
         "offset":180224,
         "duration":1024,
         "velocity":80,
         "finger":8
      },
      {  
         "pitch":62,
         "offset":181248,
         "duration":1024,
         "velocity":80,
         "finger":6
      },
      {  
         "pitch":66,
         "offset":181248,
         "duration":1024,
         "velocity":80,
         "finger":8
      },
      {  
         "pitch":62,
         "offset":182272,
         "duration":1024,
         "velocity":80,
         "finger":6
      },
      {  
         "pitch":66,
         "offset":182272,
         "duration":1024,
         "velocity":80,
         "finger":8
      },
      {  
         "pitch":83,
         "offset":183296,
         "duration":512,
         "velocity":60,
         "finger":10
      },
      {  
         "pitch":81,
         "offset":183808,
         "duration":256,
         "velocity":60,
         "finger":9
      },
      {  
         "pitch":79,
         "offset":184064,
         "duration":256,
         "velocity":60,
         "finger":8
      },
      {  
         "pitch":79,
         "offset":184320,
         "duration":512,
         "velocity":60,
         "finger":8
      },
      {  
         "pitch":79,
         "offset":184832,
         "duration":256,
         "velocity":60,
         "finger":8
      },
      {  
         "pitch":76,
         "offset":185088,
         "duration":256,
         "velocity":60,
         "finger":6
      },
      {  
         "pitch":79,
         "offset":185344,
         "duration":256,
         "velocity":60,
         "finger":8
      },
      {  
         "pitch":76,
         "offset":185600,
         "duration":256,
         "velocity":60,
         "finger":6
      },
      {  
         "pitch":79,
         "offset":185856,
         "duration":512,
         "velocity":60,
         "finger":8
      },
      {  
         "pitch":81,
         "offset":187392,
         "duration":256,
         "velocity":60,
         "finger":9
      },
      {  
         "pitch":83,
         "offset":187648,
         "duration":256,
         "velocity":60,
         "finger":10
      },
      {  
         "pitch":81,
         "offset":187904,
         "duration":256,
         "velocity":60,
         "finger":9
      },
      {  
         "pitch":79,
         "offset":188160,
         "duration":256,
         "velocity":60,
         "finger":8
      },
      {  
         "pitch":81,
         "offset":188416,
         "duration":512,
         "velocity":60,
         "finger":9
      },
      {  
         "pitch":81,
         "offset":188928,
         "duration":256,
         "velocity":60,
         "finger":9
      },
      {  
         "pitch":79,
         "offset":189184,
         "duration":256,
         "velocity":60,
         "finger":8
      },
      {  
         "pitch":83,
         "offset":189440,
         "duration":512,
         "velocity":60,
         "finger":10
      },
      {  
         "pitch":81,
         "offset":189952,
         "duration":256,
         "velocity":60,
         "finger":9
      },
      {  
         "pitch":81,
         "offset":190208,
         "duration":256,
         "velocity":60,
         "finger":9
      },
      {  
         "pitch":79,
         "offset":190720,
         "duration":768,
         "velocity":60,
         "finger":8
      },
      {  
         "pitch":81,
         "offset":191488,
         "duration":256,
         "velocity":60,
         "finger":9
      },
      {  
         "pitch":83,
         "offset":191744,
         "duration":256,
         "velocity":60,
         "finger":10
      },
      {  
         "pitch":81,
         "offset":192000,
         "duration":256,
         "velocity":60,
         "finger":9
      },
      {  
         "pitch":79,
         "offset":192256,
         "duration":256,
         "velocity":60,
         "finger":8
      },
      {  
         "pitch":81,
         "offset":192512,
         "duration":256,
         "velocity":60,
         "finger":9
      },
      {  
         "pitch":79,
         "offset":192768,
         "duration":256,
         "velocity":60,
         "finger":8
      },
      {  
         "pitch":76,
         "offset":193024,
         "duration":256,
         "velocity":80,
         "finger":7
      },
      {  
         "pitch":76,
         "offset":193280,
         "duration":256,
         "velocity":60,
         "finger":7
      },
      {  
         "pitch":76,
         "offset":193536,
         "duration":256,
         "velocity":80,
         "finger":7
      },
      {  
         "pitch":74,
         "offset":193792,
         "duration":256,
         "velocity":60,
         "finger":6
      },
      {  
         "pitch":79,
         "offset":194048,
         "duration":512,
         "velocity":60,
         "finger":10
      },
      {  
         "pitch":74,
         "offset":196608,
         "duration":1024,
         "velocity":60,
         "finger":6
      },
      {  
         "pitch":78,
         "offset":196608,
         "duration":1024,
         "velocity":60,
         "finger":8
      },
      {  
         "pitch":74,
         "offset":197632,
         "duration":1024,
         "velocity":60,
         "finger":6
      },
      {  
         "pitch":78,
         "offset":197632,
         "duration":1024,
         "velocity":60,
         "finger":8
      },
      {  
         "pitch":74,
         "offset":198656,
         "duration":1024,
         "velocity":60,
         "finger":6
      },
      {  
         "pitch":78,
         "offset":198656,
         "duration":1024,
         "velocity":60,
         "finger":8
      },
      {  
         "pitch":83,
         "offset":199680,
         "duration":512,
         "velocity":60,
         "finger":10
      },
      {  
         "pitch":81,
         "offset":200192,
         "duration":256,
         "velocity":60,
         "finger":9
      },
      {  
         "pitch":79,
         "offset":200448,
         "duration":256,
         "velocity":60,
         "finger":8
      },
      {  
         "pitch":79,
         "offset":200704,
         "duration":512,
         "velocity":60,
         "finger":8
      },
      {  
         "pitch":79,
         "offset":201216,
         "duration":256,
         "velocity":60,
         "finger":8
      },
      {  
         "pitch":76,
         "offset":201472,
         "duration":256,
         "velocity":60,
         "finger":6
      },
      {  
         "pitch":79,
         "offset":201728,
         "duration":256,
         "velocity":60,
         "finger":8
      },
      {  
         "pitch":76,
         "offset":201984,
         "duration":256,
         "velocity":60,
         "finger":6
      },
      {  
         "pitch":79,
         "offset":202240,
         "duration":512,
         "velocity":60,
         "finger":8
      },
      {  
         "pitch":81,
         "offset":203776,
         "duration":256,
         "velocity":60,
         "finger":9
      },
      {  
         "pitch":83,
         "offset":204032,
         "duration":256,
         "velocity":60,
         "finger":10
      },
      {  
         "pitch":81,
         "offset":204288,
         "duration":256,
         "velocity":60,
         "finger":9
      },
      {  
         "pitch":79,
         "offset":204544,
         "duration":256,
         "velocity":60,
         "finger":8
      },
      {  
         "pitch":81,
         "offset":204800,
         "duration":512,
         "velocity":60,
         "finger":9
      },
      {  
         "pitch":81,
         "offset":205312,
         "duration":256,
         "velocity":60,
         "finger":9
      },
      {  
         "pitch":79,
         "offset":205568,
         "duration":256,
         "velocity":60,
         "finger":8
      },
      {  
         "pitch":83,
         "offset":205824,
         "duration":512,
         "velocity":60,
         "finger":10
      },
      {  
         "pitch":81,
         "offset":206336,
         "duration":256,
         "velocity":60,
         "finger":9
      },
      {  
         "pitch":81,
         "offset":206592,
         "duration":256,
         "velocity":60,
         "finger":9
      },
      {  
         "pitch":79,
         "offset":207104,
         "duration":768,
         "velocity":60,
         "finger":8
      },
      {  
         "pitch":81,
         "offset":207872,
         "duration":256,
         "velocity":60,
         "finger":9
      },
      {  
         "pitch":83,
         "offset":208128,
         "duration":256,
         "velocity":60,
         "finger":10
      },
      {  
         "pitch":81,
         "offset":208384,
         "duration":256,
         "velocity":60,
         "finger":9
      },
      {  
         "pitch":79,
         "offset":208640,
         "duration":256,
         "velocity":60,
         "finger":8
      },
      {  
         "pitch":81,
         "offset":208896,
         "duration":256,
         "velocity":60,
         "finger":9
      },
      {  
         "pitch":79,
         "offset":209152,
         "duration":256,
         "velocity":60,
         "finger":8
      },
      {  
         "pitch":76,
         "offset":209408,
         "duration":256,
         "velocity":60,
         "finger":7
      },
      {  
         "pitch":76,
         "offset":209664,
         "duration":256,
         "velocity":60,
         "finger":7
      },
      {  
         "pitch":76,
         "offset":209920,
         "duration":256,
         "velocity":60,
         "finger":7
      },
      {  
         "pitch":74,
         "offset":210176,
         "duration":256,
         "velocity":60,
         "finger":6
      },
      {  
         "pitch":79,
         "offset":210432,
         "duration":512,
         "velocity":60,
         "finger":10
      },
      {  
         "pitch":74,
         "offset":212992,
         "duration":1024,
         "velocity":60,
         "finger":8
      },
      {  
         "pitch":78,
         "offset":212992,
         "duration":1024,
         "velocity":60,
         "finger":10
      },
      {  
         "pitch":74,
         "offset":214016,
         "duration":1024,
         "velocity":60,
         "finger":8
      },
      {  
         "pitch":78,
         "offset":214016,
         "duration":1024,
         "velocity":60,
         "finger":10
      },
      {  
         "pitch":74,
         "offset":215040,
         "duration":512,
         "velocity":60,
         "finger":8
      },
      {  
         "pitch":78,
         "offset":215040,
         "duration":512,
         "velocity":60,
         "finger":10
      },
      {  
         "pitch":62,
         "offset":215552,
         "duration":256,
         "velocity":60,
         "finger":6
      },
      {  
         "pitch":62,
         "offset":215808,
         "duration":256,
         "velocity":60,
         "finger":8
      },
      {  
         "pitch":71,
         "offset":216064,
         "duration":256,
         "velocity":60,
         "finger":10
      },
      {  
         "pitch":69,
         "offset":216320,
         "duration":512,
         "velocity":60,
         "finger":9
      },
      {  
         "pitch":69,
         "offset":216832,
         "duration":256,
         "velocity":60,
         "finger":9
      },
      {  
         "pitch":67,
         "offset":217344,
         "duration":256,
         "velocity":60,
         "finger":8
      },
      {  
         "pitch":64,
         "offset":217600,
         "duration":512,
         "velocity":60,
         "finger":6
      }
]