
[  
   {  
      "pitch":81,
      "offset":1440,
      "duration":120,
      "velocity":64,
      "finger":"?"
   },
   {  
      "pitch":83,
      "offset":1560,
      "duration":120,
      "velocity":64,
      "finger":"?"
   },
   {  
      "pitch":81,
      "offset":1680,
      "duration":120,
      "velocity":64,
      "finger":"?"
   },
   {  
      "pitch":79,
      "offset":1800,
      "duration":120,
      "velocity":64,
      "finger":"?"
   },
   {  
      "pitch":60,
      "offset":1920,
      "duration":480,
      "velocity":64,
      "finger":"?"
   },
   {  
      "pitch":67,
      "offset":1920,
      "duration":480,
      "velocity":64,
      "finger":"?"
   },
   {  
      "pitch":74,
      "offset":1920,
      "duration":120,
      "velocity":64,
      "finger":"?"
   },
   {  
      "pitch":76,
      "offset":2040,
      "duration":120,
      "velocity":64,
      "finger":"?"
   },
   {  
      "pitch":79,
      "offset":2160,
      "duration":240,
      "velocity":64,
      "finger":"?"
   },
   {  
      "pitch":60,
      "offset":2400,
      "duration":0,
      "velocity":64,
      "finger":"?"
   },
   {  
      "pitch":67,
      "offset":2400,
      "duration":0,
      "velocity":64,
      "finger":"?"
   },
   {  
      "pitch":76,
      "offset":2520,
      "duration":240,
      "velocity":64,
      "finger":"?"
   },
   {  
      "pitch":83,
      "offset":2760,
      "duration":120,
      "velocity":64,
      "finger":"?"
   },
   {  
      "pitch":60,
      "offset":2880,
      "duration":0,
      "velocity":64,
      "finger":"?"
   },
   {  
      "pitch":67,
      "offset":2880,
      "duration":0,
      "velocity":64,
      "finger":"?"
   },
   {  
      "pitch":62,
      "offset":3360,
      "duration":480,
      "velocity":64,
      "finger":"?"
   },
   {  
      "pitch":69,
      "offset":3360,
      "duration":480,
      "velocity":64,
      "finger":"?"
   },
   {  
      "pitch":81,
      "offset":3360,
      "duration":120,
      "velocity":64,
      "finger":"?"
   },
   {  
      "pitch":83,
      "offset":3480,
      "duration":120,
      "velocity":64,
      "finger":"?"
   },
   {  
      "pitch":81,
      "offset":3600,
      "duration":120,
      "velocity":64,
      "finger":"?"
   },
   {  
      "pitch":79,
      "offset":3720,
      "duration":120,
      "velocity":64,
      "finger":"?"
   },
   {  
      "pitch":64,
      "offset":3840,
      "duration":480,
      "velocity":64,
      "finger":"?"
   },
   {  
      "pitch":71,
      "offset":3840,
      "duration":480,
      "velocity":64,
      "finger":"?"
   },
   {  
      "pitch":74,
      "offset":3840,
      "duration":120,
      "velocity":64,
      "finger":"?"
   },
   {  
      "pitch":76,
      "offset":3960,
      "duration":120,
      "velocity":64,
      "finger":"?"
   },
   {  
      "pitch":79,
      "offset":4080,
      "duration":240,
      "velocity":64,
      "finger":"?"
   },
   {  
      "pitch":64,
      "offset":4320,
      "duration":0,
      "velocity":64,
      "finger":"?"
   },
   {  
      "pitch":71,
      "offset":4320,
      "duration":0,
      "velocity":64,
      "finger":"?"
   },
   {  
      "pitch":76,
      "offset":4440,
      "duration":120,
      "velocity":64,
      "finger":"?"
   },
   {  
      "pitch":83,
      "offset":4560,
      "duration":240,
      "velocity":64,
      "finger":"?"
   },
   {  
      "pitch":62,
      "offset":4800,
      "duration":480,
      "velocity":64,
      "finger":"?"
   },
   {  
      "pitch":69,
      "offset":4800,
      "duration":480,
      "velocity":64,
      "finger":"?"
   },
   {  
      "pitch":81,
      "offset":4800,
      "duration":480,
      "velocity":64,
      "finger":"?"
   },
   {  
      "pitch":62,
      "offset":5280,
      "duration":0,
      "velocity":64,
      "finger":"?"
   },
   {  
      "pitch":69,
      "offset":5280,
      "duration":0,
      "velocity":64,
      "finger":"?"
   },
   {  
      "pitch":81,
      "offset":5280,
      "duration":0,
      "velocity":64,
      "finger":"?"
   },
   {  
      "pitch":83,
      "offset":5400,
      "duration":120,
      "velocity":64,
      "finger":"?"
   },
   {  
      "pitch":81,
      "offset":5520,
      "duration":120,
      "velocity":64,
      "finger":"?"
   },
   {  
      "pitch":79,
      "offset":5640,
      "duration":120,
      "velocity":64,
      "finger":"?"
   },
   {  
      "pitch":60,
      "offset":5760,
      "duration":480,
      "velocity":64,
      "finger":"?"
   },
   {  
      "pitch":67,
      "offset":5760,
      "duration":480,
      "velocity":64,
      "finger":"?"
   },
   {  
      "pitch":74,
      "offset":5760,
      "duration":120,
      "velocity":64,
      "finger":"?"
   },
   {  
      "pitch":76,
      "offset":5880,
      "duration":120,
      "velocity":64,
      "finger":"?"
   },
   {  
      "pitch":79,
      "offset":6000,
      "duration":240,
      "velocity":64,
      "finger":"?"
   },
   {  
      "pitch":60,
      "offset":6240,
      "duration":0,
      "velocity":64,
      "finger":"?"
   },
   {  
      "pitch":67,
      "offset":6240,
      "duration":0,
      "velocity":64,
      "finger":"?"
   },
   {  
      "pitch":76,
      "offset":6360,
      "duration":240,
      "velocity":64,
      "finger":"?"
   },
   {  
      "pitch":79,
      "offset":6600,
      "duration":120,
      "velocity":64,
      "finger":"?"
   },
   {  
      "pitch":60,
      "offset":6720,
      "duration":0,
      "velocity":64,
      "finger":"?"
   },
   {  
      "pitch":67,
      "offset":6720,
      "duration":0,
      "velocity":64,
      "finger":"?"
   },
   {  
      "pitch":86,
      "offset":6720,
      "duration":120,
      "velocity":64,
      "finger":"?"
   },
   {  
      "pitch":83,
      "offset":6840,
      "duration":360,
      "velocity":64,
      "finger":"?"
   },
   {  
      "pitch":62,
      "offset":7200,
      "duration":480,
      "velocity":64,
      "finger":"?"
   },
   {  
      "pitch":69,
      "offset":7200,
      "duration":480,
      "velocity":64,
      "finger":"?"
   },
   {  
      "pitch":79,
      "offset":7200,
      "duration":120,
      "velocity":64,
      "finger":"?"
   },
   {  
      "pitch":81,
      "offset":7320,
      "duration":240,
      "velocity":64,
      "finger":"?"
   },
   {  
      "pitch":83,
      "offset":7560,
      "duration":120,
      "velocity":64,
      "finger":"?"
   },
   {  
      "pitch":64,
      "offset":7680,
      "duration":480,
      "velocity":64,
      "finger":"?"
   },
   {  
      "pitch":71,
      "offset":7680,
      "duration":480,
      "velocity":64,
      "finger":"?"
   },
   {  
      "pitch":64,
      "offset":8160,
      "duration":0,
      "velocity":64,
      "finger":"?"
   },
   {  
      "pitch":71,
      "offset":8160,
      "duration":0,
      "velocity":64,
      "finger":"?"
   },
   {  
      "pitch":64,
      "offset":8640,
      "duration":0,
      "velocity":64,
      "finger":"?"
   },
   {  
      "pitch":71,
      "offset":8640,
      "duration":0,
      "velocity":64,
      "finger":"?"
   },
   {  
      "pitch":62,
      "offset":9120,
      "duration":480,
      "velocity":64,
      "finger":"?"
   },
   {  
      "pitch":69,
      "offset":9120,
      "duration":480,
      "velocity":64,
      "finger":"?"
   },
   {  
      "pitch":81,
      "offset":9120,
      "duration":120,
      "velocity":64,
      "finger":"?"
   },
   {  
      "pitch":83,
      "offset":9240,
      "duration":120,
      "velocity":64,
      "finger":"?"
   },
   {  
      "pitch":81,
      "offset":9360,
      "duration":120,
      "velocity":64,
      "finger":"?"
   },
   {  
      "pitch":79,
      "offset":9480,
      "duration":120,
      "velocity":64,
      "finger":"?"
   },
   {  
      "pitch":60,
      "offset":9600,
      "duration":480,
      "velocity":64,
      "finger":"?"
   },
   {  
      "pitch":67,
      "offset":9600,
      "duration":480,
      "velocity":64,
      "finger":"?"
   },
   {  
      "pitch":74,
      "offset":9600,
      "duration":120,
      "velocity":64,
      "finger":"?"
   },
   {  
      "pitch":76,
      "offset":9720,
      "duration":120,
      "velocity":64,
      "finger":"?"
   },
   {  
      "pitch":79,
      "offset":9840,
      "duration":240,
      "velocity":64,
      "finger":"?"
   },
   {  
      "pitch":60,
      "offset":10080,
      "duration":0,
      "velocity":64,
      "finger":"?"
   },
   {  
      "pitch":67,
      "offset":10080,
      "duration":0,
      "velocity":64,
      "finger":"?"
   },
   {  
      "pitch":76,
      "offset":10200,
      "duration":240,
      "velocity":64,
      "finger":"?"
   },
   {  
      "pitch":83,
      "offset":10440,
      "duration":120,
      "velocity":64,
      "finger":"?"
   },
   {  
      "pitch":60,
      "offset":10560,
      "duration":0,
      "velocity":64,
      "finger":"?"
   },
   {  
      "pitch":67,
      "offset":10560,
      "duration":0,
      "velocity":64,
      "finger":"?"
   },
   {  
      "pitch":62,
      "offset":11040,
      "duration":480,
      "velocity":64,
      "finger":"?"
   },
   {  
      "pitch":69,
      "offset":11040,
      "duration":480,
      "velocity":64,
      "finger":"?"
   },
   {  
      "pitch":81,
      "offset":11040,
      "duration":120,
      "velocity":64,
      "finger":"?"
   },
   {  
      "pitch":83,
      "offset":11160,
      "duration":120,
      "velocity":64,
      "finger":"?"
   },
   {  
      "pitch":81,
      "offset":11280,
      "duration":120,
      "velocity":64,
      "finger":"?"
   },
   {  
      "pitch":79,
      "offset":11400,
      "duration":120,
      "velocity":64,
      "finger":"?"
   },
   {  
      "pitch":64,
      "offset":11520,
      "duration":480,
      "velocity":64,
      "finger":"?"
   },
   {  
      "pitch":71,
      "offset":11520,
      "duration":480,
      "velocity":64,
      "finger":"?"
   },
   {  
      "pitch":74,
      "offset":11520,
      "duration":120,
      "velocity":64,
      "finger":"?"
   },
   {  
      "pitch":76,
      "offset":11640,
      "duration":120,
      "velocity":64,
      "finger":"?"
   },
   {  
      "pitch":79,
      "offset":11760,
      "duration":240,
      "velocity":64,
      "finger":"?"
   },
   {  
      "pitch":64,
      "offset":12000,
      "duration":0,
      "velocity":64,
      "finger":"?"
   },
   {  
      "pitch":71,
      "offset":12000,
      "duration":0,
      "velocity":64,
      "finger":"?"
   },
   {  
      "pitch":76,
      "offset":12120,
      "duration":120,
      "velocity":64,
      "finger":"?"
   },
   {  
      "pitch":83,
      "offset":12240,
      "duration":240,
      "velocity":64,
      "finger":"?"
   },
   {  
      "pitch":62,
      "offset":12480,
      "duration":480,
      "velocity":64,
      "finger":"?"
   },
   {  
      "pitch":69,
      "offset":12480,
      "duration":480,
      "velocity":64,
      "finger":"?"
   },
   {  
      "pitch":81,
      "offset":12480,
      "duration":480,
      "velocity":64,
      "finger":"?"
   },
   {  
      "pitch":62,
      "offset":12960,
      "duration":0,
      "velocity":64,
      "finger":"?"
   },
   {  
      "pitch":69,
      "offset":12960,
      "duration":0,
      "velocity":64,
      "finger":"?"
   },
   {  
      "pitch":81,
      "offset":12960,
      "duration":0,
      "velocity":64,
      "finger":"?"
   },
   {  
      "pitch":83,
      "offset":13080,
      "duration":120,
      "velocity":64,
      "finger":"?"
   },
   {  
      "pitch":81,
      "offset":13200,
      "duration":120,
      "velocity":64,
      "finger":"?"
   },
   {  
      "pitch":79,
      "offset":13320,
      "duration":120,
      "velocity":64,
      "finger":"?"
   },
   {  
      "pitch":60,
      "offset":13440,
      "duration":480,
      "velocity":64,
      "finger":"?"
   },
   {  
      "pitch":67,
      "offset":13440,
      "duration":480,
      "velocity":64,
      "finger":"?"
   },
   {  
      "pitch":74,
      "offset":13440,
      "duration":120,
      "velocity":64,
      "finger":"?"
   },
   {  
      "pitch":76,
      "offset":13560,
      "duration":120,
      "velocity":64,
      "finger":"?"
   },
   {  
      "pitch":79,
      "offset":13680,
      "duration":240,
      "velocity":64,
      "finger":"?"
   },
   {  
      "pitch":60,
      "offset":13920,
      "duration":0,
      "velocity":64,
      "finger":"?"
   },
   {  
      "pitch":67,
      "offset":13920,
      "duration":0,
      "velocity":64,
      "finger":"?"
   },
   {  
      "pitch":76,
      "offset":14040,
      "duration":240,
      "velocity":64,
      "finger":"?"
   },
   {  
      "pitch":79,
      "offset":14280,
      "duration":120,
      "velocity":64,
      "finger":"?"
   },
   {  
      "pitch":60,
      "offset":14400,
      "duration":0,
      "velocity":64,
      "finger":"?"
   },
   {  
      "pitch":67,
      "offset":14400,
      "duration":0,
      "velocity":64,
      "finger":"?"
   },
   {  
      "pitch":86,
      "offset":14400,
      "duration":120,
      "velocity":64,
      "finger":"?"
   },
   {  
      "pitch":83,
      "offset":14520,
      "duration":360,
      "velocity":64,
      "finger":"?"
   },
   {  
      "pitch":62,
      "offset":14880,
      "duration":480,
      "velocity":64,
      "finger":"?"
   },
   {  
      "pitch":69,
      "offset":14880,
      "duration":480,
      "velocity":64,
      "finger":"?"
   },
   {  
      "pitch":79,
      "offset":14880,
      "duration":120,
      "velocity":64,
      "finger":"?"
   },
   {  
      "pitch":81,
      "offset":15000,
      "duration":240,
      "velocity":64,
      "finger":"?"
   },
   {  
      "pitch":83,
      "offset":15240,
      "duration":120,
      "velocity":64,
      "finger":"?"
   },
   {  
      "pitch":64,
      "offset":15360,
      "duration":480,
      "velocity":64,
      "finger":"?"
   },
   {  
      "pitch":71,
      "offset":15360,
      "duration":480,
      "velocity":64,
      "finger":"?"
   },
   {  
      "pitch":64,
      "offset":15840,
      "duration":0,
      "velocity":64,
      "finger":"?"
   },
   {  
      "pitch":71,
      "offset":15840,
      "duration":0,
      "velocity":64,
      "finger":"?"
   },
   {  
      "pitch":64,
      "offset":16320,
      "duration":0,
      "velocity":64,
      "finger":"?"
   },
   {  
      "pitch":71,
      "offset":16320,
      "duration":0,
      "velocity":64,
      "finger":"?"
   },
   {  
      "pitch":71,
      "offset":16560,
      "duration":120,
      "velocity":64,
      "finger":"?"
   },
   {  
      "pitch":71,
      "offset":16680,
      "duration":0,
      "velocity":64,
      "finger":"?"
   },
   {  
      "pitch":69,
      "offset":16800,
      "duration":120,
      "velocity":64,
      "finger":"?"
   },
   {  
      "pitch":71,
      "offset":16920,
      "duration":120,
      "velocity":64,
      "finger":"?"
   },
   {  
      "pitch":69,
      "offset":17040,
      "duration":120,
      "velocity":64,
      "finger":"?"
   },
   {  
      "pitch":67,
      "offset":17160,
      "duration":120,
      "velocity":64,
      "finger":"?"
   },
   {  
      "pitch":48,
      "offset":17280,
      "duration":480,
      "velocity":64,
      "finger":"?"
   },
   {  
      "pitch":55,
      "offset":17280,
      "duration":480,
      "velocity":64,
      "finger":"?"
   },
   {  
      "pitch":67,
      "offset":17280,
      "duration":0,
      "velocity":64,
      "finger":"?"
   },
   {  
      "pitch":64,
      "offset":17640,
      "duration":120,
      "velocity":64,
      "finger":"?"
   },
   {  
      "pitch":48,
      "offset":17760,
      "duration":0,
      "velocity":64,
      "finger":"?"
   },
   {  
      "pitch":55,
      "offset":17760,
      "duration":0,
      "velocity":64,
      "finger":"?"
   },
   {  
      "pitch":67,
      "offset":17760,
      "duration":120,
      "velocity":64,
      "finger":"?"
   },
   {  
      "pitch":64,
      "offset":17880,
      "duration":120,
      "velocity":64,
      "finger":"?"
   },
   {  
      "pitch":67,
      "offset":18000,
      "duration":240,
      "velocity":64,
      "finger":"?"
   },
   {  
      "pitch":43,
      "offset":18240,
      "duration":480,
      "velocity":64,
      "finger":"?"
   },
   {  
      "pitch":50,
      "offset":18240,
      "duration":480,
      "velocity":64,
      "finger":"?"
   },
   {  
      "pitch":62,
      "offset":18240,
      "duration":360,
      "velocity":64,
      "finger":"?"
   },
   {  
      "pitch":62,
      "offset":18600,
      "duration":0,
      "velocity":64,
      "finger":"?"
   },
   {  
      "pitch":43,
      "offset":18720,
      "duration":0,
      "velocity":64,
      "finger":"?"
   },
   {  
      "pitch":50,
      "offset":18720,
      "duration":0,
      "velocity":64,
      "finger":"?"
   },
   {  
      "pitch":69,
      "offset":18720,
      "duration":120,
      "velocity":64,
      "finger":"?"
   },
   {  
      "pitch":71,
      "offset":18840,
      "duration":120,
      "velocity":64,
      "finger":"?"
   },
   {  
      "pitch":69,
      "offset":18960,
      "duration":120,
      "velocity":64,
      "finger":"?"
   },
   {  
      "pitch":67,
      "offset":19080,
      "duration":120,
      "velocity":64,
      "finger":"?"
   },
   {  
      "pitch":50,
      "offset":19200,
      "duration":0,
      "velocity":64,
      "finger":"?"
   },
   {  
      "pitch":57,
      "offset":19200,
      "duration":480,
      "velocity":64,
      "finger":"?"
   },
   {  
      "pitch":69,
      "offset":19200,
      "duration":240,
      "velocity":64,
      "finger":"?"
   },
   {  
      "pitch":69,
      "offset":19440,
      "duration":0,
      "velocity":64,
      "finger":"?"
   },
   {  
      "pitch":67,
      "offset":19560,
      "duration":120,
      "velocity":64,
      "finger":"?"
   },
   {  
      "pitch":50,
      "offset":19680,
      "duration":0,
      "velocity":64,
      "finger":"?"
   },
   {  
      "pitch":57,
      "offset":19680,
      "duration":0,
      "velocity":64,
      "finger":"?"
   },
   {  
      "pitch":71,
      "offset":19680,
      "duration":240,
      "velocity":64,
      "finger":"?"
   },
   {  
      "pitch":69,
      "offset":19920,
      "duration":120,
      "velocity":64,
      "finger":"?"
   },
   {  
      "pitch":69,
      "offset":20040,
      "duration":0,
      "velocity":64,
      "finger":"?"
   },
   {  
      "pitch":52,
      "offset":20160,
      "duration":480,
      "velocity":64,
      "finger":"?"
   },
   {  
      "pitch":59,
      "offset":20160,
      "duration":480,
      "velocity":64,
      "finger":"?"
   },
   {  
      "pitch":67,
      "offset":20280,
      "duration":360,
      "velocity":64,
      "finger":"?"
   },
   {  
      "pitch":52,
      "offset":20640,
      "duration":0,
      "velocity":64,
      "finger":"?"
   },
   {  
      "pitch":59,
      "offset":20640,
      "duration":0,
      "velocity":64,
      "finger":"?"
   },
   {  
      "pitch":69,
      "offset":20640,
      "duration":120,
      "velocity":64,
      "finger":"?"
   },
   {  
      "pitch":71,
      "offset":20760,
      "duration":120,
      "velocity":64,
      "finger":"?"
   },
   {  
      "pitch":69,
      "offset":20880,
      "duration":120,
      "velocity":64,
      "finger":"?"
   },
   {  
      "pitch":67,
      "offset":21000,
      "duration":120,
      "velocity":64,
      "finger":"?"
   },
   {  
      "pitch":48,
      "offset":21120,
      "duration":480,
      "velocity":64,
      "finger":"?"
   },
   {  
      "pitch":55,
      "offset":21120,
      "duration":480,
      "velocity":64,
      "finger":"?"
   },
   {  
      "pitch":69,
      "offset":21120,
      "duration":120,
      "velocity":64,
      "finger":"?"
   },
   {  
      "pitch":67,
      "offset":21240,
      "duration":120,
      "velocity":64,
      "finger":"?"
   },
   {  
      "pitch":64,
      "offset":21360,
      "duration":120,
      "velocity":64,
      "finger":"?"
   },
   {  
      "pitch":64,
      "offset":21480,
      "duration":0,
      "velocity":64,
      "finger":"?"
   },
   {  
      "pitch":48,
      "offset":21600,
      "duration":0,
      "velocity":64,
      "finger":"?"
   },
   {  
      "pitch":55,
      "offset":21600,
      "duration":0,
      "velocity":64,
      "finger":"?"
   },
   {  
      "pitch":64,
      "offset":21600,
      "duration":0,
      "velocity":64,
      "finger":"?"
   },
   {  
      "pitch":62,
      "offset":21720,
      "duration":120,
      "velocity":64,
      "finger":"?"
   },
   {  
      "pitch":67,
      "offset":21840,
      "duration":240,
      "velocity":64,
      "finger":"?"
   },
   {  
      "pitch":43,
      "offset":22080,
      "duration":480,
      "velocity":64,
      "finger":"?"
   },
   {  
      "pitch":50,
      "offset":22080,
      "duration":480,
      "velocity":64,
      "finger":"?"
   },
   {  
      "pitch":43,
      "offset":22560,
      "duration":0,
      "velocity":64,
      "finger":"?"
   },
   {  
      "pitch":50,
      "offset":22560,
      "duration":0,
      "velocity":64,
      "finger":"?"
   },
   {  
      "pitch":50,
      "offset":23040,
      "duration":0,
      "velocity":64,
      "finger":"?"
   },
   {  
      "pitch":57,
      "offset":23040,
      "duration":480,
      "velocity":64,
      "finger":"?"
   },
   {  
      "pitch":62,
      "offset":23040,
      "duration":480,
      "velocity":64,
      "finger":"?"
   },
   {  
      "pitch":66,
      "offset":23040,
      "duration":480,
      "velocity":64,
      "finger":"?"
   },
   {  
      "pitch":62,
      "offset":23520,
      "duration":0,
      "velocity":64,
      "finger":"?"
   },
   {  
      "pitch":66,
      "offset":23520,
      "duration":0,
      "velocity":64,
      "finger":"?"
   },
   {  
      "pitch":57,
      "offset":23760,
      "duration":240,
      "velocity":64,
      "finger":"?"
   },
   {  
      "pitch":62,
      "offset":24000,
      "duration":0,
      "velocity":64,
      "finger":"?"
   },
   {  
      "pitch":66,
      "offset":24000,
      "duration":0,
      "velocity":64,
      "finger":"?"
   },
   {  
      "pitch":71,
      "offset":24240,
      "duration":120,
      "velocity":64,
      "finger":"?"
   },
   {  
      "pitch":71,
      "offset":24360,
      "duration":0,
      "velocity":64,
      "finger":"?"
   },
   {  
      "pitch":71,
      "offset":24480,
      "duration":0,
      "velocity":64,
      "finger":"?"
   },
   {  
      "pitch":69,
      "offset":24720,
      "duration":120,
      "velocity":64,
      "finger":"?"
   },
   {  
      "pitch":67,
      "offset":24840,
      "duration":120,
      "velocity":64,
      "finger":"?"
   },
   {  
      "pitch":48,
      "offset":24960,
      "duration":480,
      "velocity":64,
      "finger":"?"
   },
   {  
      "pitch":55,
      "offset":24960,
      "duration":480,
      "velocity":64,
      "finger":"?"
   },
   {  
      "pitch":67,
      "offset":24960,
      "duration":0,
      "velocity":64,
      "finger":"?"
   },
   {  
      "pitch":67,
      "offset":25200,
      "duration":0,
      "velocity":64,
      "finger":"?"
   },
   {  
      "pitch":64,
      "offset":25320,
      "duration":120,
      "velocity":64,
      "finger":"?"
   },
   {  
      "pitch":48,
      "offset":25440,
      "duration":0,
      "velocity":64,
      "finger":"?"
   },
   {  
      "pitch":55,
      "offset":25440,
      "duration":0,
      "velocity":64,
      "finger":"?"
   },
   {  
      "pitch":67,
      "offset":25440,
      "duration":120,
      "velocity":64,
      "finger":"?"
   },
   {  
      "pitch":64,
      "offset":25560,
      "duration":120,
      "velocity":64,
      "finger":"?"
   },
   {  
      "pitch":67,
      "offset":25680,
      "duration":240,
      "velocity":64,
      "finger":"?"
   },
   {  
      "pitch":43,
      "offset":25920,
      "duration":480,
      "velocity":64,
      "finger":"?"
   },
   {  
      "pitch":50,
      "offset":25920,
      "duration":480,
      "velocity":64,
      "finger":"?"
   },
   {  
      "pitch":43,
      "offset":26400,
      "duration":0,
      "velocity":64,
      "finger":"?"
   },
   {  
      "pitch":50,
      "offset":26400,
      "duration":0,
      "velocity":64,
      "finger":"?"
   },
   {  
      "pitch":69,
      "offset":26400,
      "duration":120,
      "velocity":64,
      "finger":"?"
   },
   {  
      "pitch":71,
      "offset":26520,
      "duration":120,
      "velocity":64,
      "finger":"?"
   },
   {  
      "pitch":69,
      "offset":26640,
      "duration":120,
      "velocity":64,
      "finger":"?"
   },
   {  
      "pitch":67,
      "offset":26760,
      "duration":120,
      "velocity":64,
      "finger":"?"
   },
   {  
      "pitch":50,
      "offset":26880,
      "duration":0,
      "velocity":64,
      "finger":"?"
   },
   {  
      "pitch":57,
      "offset":26880,
      "duration":480,
      "velocity":64,
      "finger":"?"
   },
   {  
      "pitch":69,
      "offset":26880,
      "duration":240,
      "velocity":64,
      "finger":"?"
   },
   {  
      "pitch":69,
      "offset":27120,
      "duration":0,
      "velocity":64,
      "finger":"?"
   },
   {  
      "pitch":67,
      "offset":27240,
      "duration":120,
      "velocity":64,
      "finger":"?"
   },
   {  
      "pitch":50,
      "offset":27360,
      "duration":0,
      "velocity":64,
      "finger":"?"
   },
   {  
      "pitch":57,
      "offset":27360,
      "duration":0,
      "velocity":64,
      "finger":"?"
   },
   {  
      "pitch":71,
      "offset":27360,
      "duration":240,
      "velocity":64,
      "finger":"?"
   },
   {  
      "pitch":69,
      "offset":27600,
      "duration":120,
      "velocity":64,
      "finger":"?"
   },
   {  
      "pitch":69,
      "offset":27720,
      "duration":0,
      "velocity":64,
      "finger":"?"
   },
   {  
      "pitch":52,
      "offset":27840,
      "duration":480,
      "velocity":64,
      "finger":"?"
   },
   {  
      "pitch":59,
      "offset":27840,
      "duration":480,
      "velocity":64,
      "finger":"?"
   },
   {  
      "pitch":67,
      "offset":27960,
      "duration":360,
      "velocity":64,
      "finger":"?"
   },
   {  
      "pitch":52,
      "offset":28320,
      "duration":0,
      "velocity":64,
      "finger":"?"
   },
   {  
      "pitch":59,
      "offset":28320,
      "duration":0,
      "velocity":64,
      "finger":"?"
   },
   {  
      "pitch":69,
      "offset":28320,
      "duration":120,
      "velocity":64,
      "finger":"?"
   },
   {  
      "pitch":71,
      "offset":28440,
      "duration":120,
      "velocity":64,
      "finger":"?"
   },
   {  
      "pitch":69,
      "offset":28560,
      "duration":120,
      "velocity":64,
      "finger":"?"
   },
   {  
      "pitch":67,
      "offset":28680,
      "duration":120,
      "velocity":64,
      "finger":"?"
   },
   {  
      "pitch":48,
      "offset":28800,
      "duration":480,
      "velocity":64,
      "finger":"?"
   },
   {  
      "pitch":55,
      "offset":28800,
      "duration":480,
      "velocity":64,
      "finger":"?"
   },
   {  
      "pitch":69,
      "offset":28800,
      "duration":120,
      "velocity":64,
      "finger":"?"
   },
   {  
      "pitch":67,
      "offset":28920,
      "duration":120,
      "velocity":64,
      "finger":"?"
   },
   {  
      "pitch":64,
      "offset":29040,
      "duration":120,
      "velocity":64,
      "finger":"?"
   },
   {  
      "pitch":64,
      "offset":29160,
      "duration":0,
      "velocity":64,
      "finger":"?"
   },
   {  
      "pitch":48,
      "offset":29280,
      "duration":0,
      "velocity":64,
      "finger":"?"
   },
   {  
      "pitch":55,
      "offset":29280,
      "duration":0,
      "velocity":64,
      "finger":"?"
   },
   {  
      "pitch":64,
      "offset":29280,
      "duration":0,
      "velocity":64,
      "finger":"?"
   },
   {  
      "pitch":62,
      "offset":29400,
      "duration":120,
      "velocity":64,
      "finger":"?"
   },
   {  
      "pitch":67,
      "offset":29520,
      "duration":240,
      "velocity":64,
      "finger":"?"
   },
   {  
      "pitch":43,
      "offset":29760,
      "duration":480,
      "velocity":64,
      "finger":"?"
   },
   {  
      "pitch":50,
      "offset":29760,
      "duration":480,
      "velocity":64,
      "finger":"?"
   },
   {  
      "pitch":43,
      "offset":30240,
      "duration":0,
      "velocity":64,
      "finger":"?"
   },
   {  
      "pitch":50,
      "offset":30240,
      "duration":0,
      "velocity":64,
      "finger":"?"
   },
   {  
      "pitch":50,
      "offset":30720,
      "duration":0,
      "velocity":64,
      "finger":"?"
   },
   {  
      "pitch":57,
      "offset":30720,
      "duration":480,
      "velocity":64,
      "finger":"?"
   },
   {  
      "pitch":62,
      "offset":30720,
      "duration":480,
      "velocity":64,
      "finger":"?"
   },
   {  
      "pitch":66,
      "offset":30720,
      "duration":480,
      "velocity":64,
      "finger":"?"
   },
   {  
      "pitch":62,
      "offset":31200,
      "duration":0,
      "velocity":64,
      "finger":"?"
   },
   {  
      "pitch":66,
      "offset":31200,
      "duration":0,
      "velocity":64,
      "finger":"?"
   },
   {  
      "pitch":57,
      "offset":31440,
      "duration":240,
      "velocity":64,
      "finger":"?"
   },
   {  
      "pitch":62,
      "offset":31680,
      "duration":0,
      "velocity":64,
      "finger":"?"
   },
   {  
      "pitch":66,
      "offset":31680,
      "duration":0,
      "velocity":64,
      "finger":"?"
   },
   {  
      "pitch":69,
      "offset":31920,
      "duration":120,
      "velocity":64,
      "finger":"?"
   },
   {  
      "pitch":67,
      "offset":32040,
      "duration":120,
      "velocity":64,
      "finger":"?"
   },
   {  
      "pitch":71,
      "offset":32160,
      "duration":120,
      "velocity":64,
      "finger":"?"
   },
   {  
      "pitch":69,
      "offset":32280,
      "duration":240,
      "velocity":64,
      "finger":"?"
   },
   {  
      "pitch":69,
      "offset":32520,
      "duration":0,
      "velocity":64,
      "finger":"?"
   },
   {  
      "pitch":52,
      "offset":32640,
      "duration":480,
      "velocity":64,
      "finger":"?"
   },
   {  
      "pitch":59,
      "offset":32640,
      "duration":480,
      "velocity":64,
      "finger":"?"
   },
   {  
      "pitch":67,
      "offset":32760,
      "duration":120,
      "velocity":64,
      "finger":"?"
   },
   {  
      "pitch":64,
      "offset":32880,
      "duration":240,
      "velocity":64,
      "finger":"?"
   },
   {  
      "pitch":52,
      "offset":33120,
      "duration":0,
      "velocity":64,
      "finger":"?"
   },
   {  
      "pitch":59,
      "offset":33120,
      "duration":0,
      "velocity":64,
      "finger":"?"
   },
   {  
      "pitch":55,
      "offset":33360,
      "duration":240,
      "velocity":64,
      "finger":"?"
   },
   {  
      "pitch":48,
      "offset":33600,
      "duration":240,
      "velocity":64,
      "finger":"?"
   },
   {  
      "pitch":60,
      "offset":33600,
      "duration":480,
      "velocity":64,
      "finger":"?"
   },
   {  
      "pitch":64,
      "offset":33600,
      "duration":480,
      "velocity":64,
      "finger":"?"
   },
   {  
      "pitch":55,
      "offset":33840,
      "duration":240,
      "velocity":64,
      "finger":"?"
   },
   {  
      "pitch":60,
      "offset":34080,
      "duration":0,
      "velocity":64,
      "finger":"?"
   },
   {  
      "pitch":64,
      "offset":34080,
      "duration":0,
      "velocity":64,
      "finger":"?"
   },
   {  
      "pitch":55,
      "offset":34320,
      "duration":240,
      "velocity":64,
      "finger":"?"
   },
   {  
      "pitch":50,
      "offset":34560,
      "duration":240,
      "velocity":64,
      "finger":"?"
   },
   {  
      "pitch":62,
      "offset":34560,
      "duration":480,
      "velocity":64,
      "finger":"?"
   },
   {  
      "pitch":66,
      "offset":34560,
      "duration":480,
      "velocity":64,
      "finger":"?"
   },
   {  
      "pitch":57,
      "offset":34800,
      "duration":240,
      "velocity":64,
      "finger":"?"
   },
   {  
      "pitch":62,
      "offset":35040,
      "duration":0,
      "velocity":64,
      "finger":"?"
   },
   {  
      "pitch":66,
      "offset":35040,
      "duration":0,
      "velocity":64,
      "finger":"?"
   },
   {  
      "pitch":57,
      "offset":35280,
      "duration":240,
      "velocity":64,
      "finger":"?"
   },
   {  
      "pitch":47,
      "offset":35520,
      "duration":240,
      "velocity":64,
      "finger":"?"
   },
   {  
      "pitch":59,
      "offset":35520,
      "duration":480,
      "velocity":64,
      "finger":"?"
   },
   {  
      "pitch":62,
      "offset":35520,
      "duration":0,
      "velocity":64,
      "finger":"?"
   },
   {  
      "pitch":54,
      "offset":35760,
      "duration":240,
      "velocity":64,
      "finger":"?"
   },
   {  
      "pitch":59,
      "offset":36000,
      "duration":0,
      "velocity":64,
      "finger":"?"
   },
   {  
      "pitch":62,
      "offset":36000,
      "duration":0,
      "velocity":64,
      "finger":"?"
   },
   {  
      "pitch":54,
      "offset":36240,
      "duration":240,
      "velocity":64,
      "finger":"?"
   },
   {  
      "pitch":52,
      "offset":36480,
      "duration":240,
      "velocity":64,
      "finger":"?"
   },
   {  
      "pitch":64,
      "offset":36480,
      "duration":480,
      "velocity":64,
      "finger":"?"
   },
   {  
      "pitch":67,
      "offset":36480,
      "duration":480,
      "velocity":64,
      "finger":"?"
   },
   {  
      "pitch":59,
      "offset":36720,
      "duration":240,
      "velocity":64,
      "finger":"?"
   },
   {  
      "pitch":64,
      "offset":36960,
      "duration":0,
      "velocity":64,
      "finger":"?"
   },
   {  
      "pitch":67,
      "offset":36960,
      "duration":0,
      "velocity":64,
      "finger":"?"
   },
   {  
      "pitch":59,
      "offset":37200,
      "duration":240,
      "velocity":64,
      "finger":"?"
   },
   {  
      "pitch":48,
      "offset":37440,
      "duration":240,
      "velocity":64,
      "finger":"?"
   },
   {  
      "pitch":60,
      "offset":37440,
      "duration":480,
      "velocity":64,
      "finger":"?"
   },
   {  
      "pitch":64,
      "offset":37440,
      "duration":0,
      "velocity":64,
      "finger":"?"
   },
   {  
      "pitch":55,
      "offset":37680,
      "duration":240,
      "velocity":64,
      "finger":"?"
   },
   {  
      "pitch":60,
      "offset":37920,
      "duration":0,
      "velocity":64,
      "finger":"?"
   },
   {  
      "pitch":64,
      "offset":37920,
      "duration":0,
      "velocity":64,
      "finger":"?"
   },
   {  
      "pitch":55,
      "offset":38160,
      "duration":240,
      "velocity":64,
      "finger":"?"
   },
   {  
      "pitch":50,
      "offset":38400,
      "duration":240,
      "velocity":64,
      "finger":"?"
   },
   {  
      "pitch":62,
      "offset":38400,
      "duration":480,
      "velocity":64,
      "finger":"?"
   },
   {  
      "pitch":66,
      "offset":38400,
      "duration":480,
      "velocity":64,
      "finger":"?"
   },
   {  
      "pitch":57,
      "offset":38640,
      "duration":240,
      "velocity":64,
      "finger":"?"
   },
   {  
      "pitch":62,
      "offset":38880,
      "duration":0,
      "velocity":64,
      "finger":"?"
   },
   {  
      "pitch":66,
      "offset":38880,
      "duration":0,
      "velocity":64,
      "finger":"?"
   },
   {  
      "pitch":57,
      "offset":39120,
      "duration":240,
      "velocity":64,
      "finger":"?"
   },
   {  
      "pitch":62,
      "offset":39360,
      "duration":0,
      "velocity":64,
      "finger":"?"
   },
   {  
      "pitch":66,
      "offset":39360,
      "duration":0,
      "velocity":64,
      "finger":"?"
   },
   {  
      "pitch":57,
      "offset":39600,
      "duration":240,
      "velocity":64,
      "finger":"?"
   },
   {  
      "pitch":62,
      "offset":39840,
      "duration":0,
      "velocity":64,
      "finger":"?"
   },
   {  
      "pitch":66,
      "offset":39840,
      "duration":0,
      "velocity":64,
      "finger":"?"
   },
   {  
      "pitch":52,
      "offset":40320,
      "duration":240,
      "velocity":64,
      "finger":"?"
   },
   {  
      "pitch":71,
      "offset":40320,
      "duration":240,
      "velocity":64,
      "finger":"?"
   },
   {  
      "pitch":59,
      "offset":40560,
      "duration":240,
      "velocity":64,
      "finger":"?"
   },
   {  
      "pitch":71,
      "offset":40560,
      "duration":0,
      "velocity":64,
      "finger":"?"
   },
   {  
      "pitch":64,
      "offset":40800,
      "duration":480,
      "velocity":64,
      "finger":"?"
   },
   {  
      "pitch":71,
      "offset":40800,
      "duration":0,
      "velocity":64,
      "finger":"?"
   },
   {  
      "pitch":69,
      "offset":40920,
      "duration":120,
      "velocity":64,
      "finger":"?"
   },
   {  
      "pitch":67,
      "offset":41040,
      "duration":120,
      "velocity":64,
      "finger":"?"
   },
   {  
      "pitch":67,
      "offset":41160,
      "duration":0,
      "velocity":64,
      "finger":"?"
   },
   {  
      "pitch":48,
      "offset":41280,
      "duration":240,
      "velocity":64,
      "finger":"?"
   },
   {  
      "pitch":55,
      "offset":41520,
      "duration":240,
      "velocity":64,
      "finger":"?"
   },
   {  
      "pitch":72,
      "offset":41640,
      "duration":120,
      "velocity":64,
      "finger":"?"
   },
   {  
      "pitch":60,
      "offset":41760,
      "duration":240,
      "velocity":64,
      "finger":"?"
   },
   {  
      "pitch":71,
      "offset":41880,
      "duration":360,
      "velocity":64,
      "finger":"?"
   },
   {  
      "pitch":55,
      "offset":42000,
      "duration":240,
      "velocity":64,
      "finger":"?"
   },
   {  
      "pitch":50,
      "offset":42240,
      "duration":240,
      "velocity":64,
      "finger":"?"
   },
   {  
      "pitch":69,
      "offset":42240,
      "duration":360,
      "velocity":64,
      "finger":"?"
   },
   {  
      "pitch":57,
      "offset":42480,
      "duration":240,
      "velocity":64,
      "finger":"?"
   },
   {  
      "pitch":69,
      "offset":42600,
      "duration":0,
      "velocity":64,
      "finger":"?"
   },
   {  
      "pitch":62,
      "offset":42720,
      "duration":480,
      "velocity":64,
      "finger":"?"
   },
   {  
      "pitch":69,
      "offset":42720,
      "duration":0,
      "velocity":64,
      "finger":"?"
   },
   {  
      "pitch":67,
      "offset":42840,
      "duration":120,
      "velocity":64,
      "finger":"?"
   },
   {  
      "pitch":66,
      "offset":42960,
      "duration":240,
      "velocity":64,
      "finger":"?"
   },
   {  
      "pitch":47,
      "offset":43200,
      "duration":240,
      "velocity":64,
      "finger":"?"
   },
   {  
      "pitch":66,
      "offset":43200,
      "duration":0,
      "velocity":64,
      "finger":"?"
   },
   {  
      "pitch":54,
      "offset":43440,
      "duration":240,
      "velocity":64,
      "finger":"?"
   },
   {  
      "pitch":62,
      "offset":43560,
      "duration":120,
      "velocity":64,
      "finger":"?"
   },
   {  
      "pitch":59,
      "offset":43680,
      "duration":240,
      "velocity":64,
      "finger":"?"
   },
   {  
      "pitch":71,
      "offset":43680,
      "duration":240,
      "velocity":64,
      "finger":"?"
   },
   {  
      "pitch":54,
      "offset":43920,
      "duration":240,
      "velocity":64,
      "finger":"?"
   },
   {  
      "pitch":69,
      "offset":43920,
      "duration":240,
      "velocity":64,
      "finger":"?"
   },
   {  
      "pitch":52,
      "offset":44160,
      "duration":240,
      "velocity":64,
      "finger":"?"
   },
   {  
      "pitch":67,
      "offset":44160,
      "duration":360,
      "velocity":64,
      "finger":"?"
   },
   {  
      "pitch":59,
      "offset":44400,
      "duration":240,
      "velocity":64,
      "finger":"?"
   },
   {  
      "pitch":64,
      "offset":44520,
      "duration":120,
      "velocity":64,
      "finger":"?"
   },
   {  
      "pitch":64,
      "offset":44640,
      "duration":0,
      "velocity":64,
      "finger":"?"
   },
   {  
      "pitch":71,
      "offset":44640,
      "duration":240,
      "velocity":64,
      "finger":"?"
   },
   {  
      "pitch":69,
      "offset":44880,
      "duration":120,
      "velocity":64,
      "finger":"?"
   },
   {  
      "pitch":67,
      "offset":45000,
      "duration":120,
      "velocity":64,
      "finger":"?"
   },
   {  
      "pitch":48,
      "offset":45120,
      "duration":240,
      "velocity":64,
      "finger":"?"
   },
   {  
      "pitch":64,
      "offset":45120,
      "duration":0,
      "velocity":64,
      "finger":"?"
   },
   {  
      "pitch":55,
      "offset":45360,
      "duration":240,
      "velocity":64,
      "finger":"?"
   },
   {  
      "pitch":60,
      "offset":45600,
      "duration":240,
      "velocity":64,
      "finger":"?"
   },
   {  
      "pitch":55,
      "offset":45840,
      "duration":240,
      "velocity":64,
      "finger":"?"
   },
   {  
      "pitch":50,
      "offset":46080,
      "duration":240,
      "velocity":64,
      "finger":"?"
   },
   {  
      "pitch":62,
      "offset":46080,
      "duration":480,
      "velocity":64,
      "finger":"?"
   },
   {  
      "pitch":66,
      "offset":46080,
      "duration":480,
      "velocity":64,
      "finger":"?"
   },
   {  
      "pitch":57,
      "offset":46320,
      "duration":240,
      "velocity":64,
      "finger":"?"
   },
   {  
      "pitch":62,
      "offset":46560,
      "duration":0,
      "velocity":64,
      "finger":"?"
   },
   {  
      "pitch":66,
      "offset":46560,
      "duration":0,
      "velocity":64,
      "finger":"?"
   },
   {  
      "pitch":57,
      "offset":46800,
      "duration":240,
      "velocity":64,
      "finger":"?"
   },
   {  
      "pitch":62,
      "offset":47040,
      "duration":0,
      "velocity":64,
      "finger":"?"
   },
   {  
      "pitch":66,
      "offset":47040,
      "duration":0,
      "velocity":64,
      "finger":"?"
   },
   {  
      "pitch":57,
      "offset":47280,
      "duration":240,
      "velocity":64,
      "finger":"?"
   },
   {  
      "pitch":62,
      "offset":47520,
      "duration":0,
      "velocity":64,
      "finger":"?"
   },
   {  
      "pitch":66,
      "offset":47520,
      "duration":0,
      "velocity":64,
      "finger":"?"
   },
   {  
      "pitch":71,
      "offset":47880,
      "duration":120,
      "velocity":64,
      "finger":"?"
   },
   {  
      "pitch":52,
      "offset":48000,
      "duration":240,
      "velocity":64,
      "finger":"?"
   },
   {  
      "pitch":71,
      "offset":48000,
      "duration":0,
      "velocity":64,
      "finger":"?"
   },
   {  
      "pitch":59,
      "offset":48240,
      "duration":240,
      "velocity":64,
      "finger":"?"
   },
   {  
      "pitch":71,
      "offset":48240,
      "duration":0,
      "velocity":64,
      "finger":"?"
   },
   {  
      "pitch":64,
      "offset":48480,
      "duration":480,
      "velocity":64,
      "finger":"?"
   },
   {  
      "pitch":71,
      "offset":48480,
      "duration":0,
      "velocity":64,
      "finger":"?"
   },
   {  
      "pitch":69,
      "offset":48600,
      "duration":120,
      "velocity":64,
      "finger":"?"
   },
   {  
      "pitch":67,
      "offset":48720,
      "duration":120,
      "velocity":64,
      "finger":"?"
   },
   {  
      "pitch":67,
      "offset":48840,
      "duration":0,
      "velocity":64,
      "finger":"?"
   },
   {  
      "pitch":48,
      "offset":48960,
      "duration":240,
      "velocity":64,
      "finger":"?"
   },
   {  
      "pitch":55,
      "offset":49200,
      "duration":240,
      "velocity":64,
      "finger":"?"
   },
   {  
      "pitch":72,
      "offset":49320,
      "duration":120,
      "velocity":64,
      "finger":"?"
   },
   {  
      "pitch":60,
      "offset":49440,
      "duration":240,
      "velocity":64,
      "finger":"?"
   },
   {  
      "pitch":71,
      "offset":49560,
      "duration":360,
      "velocity":64,
      "finger":"?"
   },
   {  
      "pitch":55,
      "offset":49680,
      "duration":240,
      "velocity":64,
      "finger":"?"
   },
   {  
      "pitch":50,
      "offset":49920,
      "duration":240,
      "velocity":64,
      "finger":"?"
   },
   {  
      "pitch":69,
      "offset":49920,
      "duration":360,
      "velocity":64,
      "finger":"?"
   },
   {  
      "pitch":57,
      "offset":50160,
      "duration":240,
      "velocity":64,
      "finger":"?"
   },
   {  
      "pitch":69,
      "offset":50280,
      "duration":0,
      "velocity":64,
      "finger":"?"
   },
   {  
      "pitch":62,
      "offset":50400,
      "duration":480,
      "velocity":64,
      "finger":"?"
   },
   {  
      "pitch":69,
      "offset":50400,
      "duration":0,
      "velocity":64,
      "finger":"?"
   },
   {  
      "pitch":67,
      "offset":50520,
      "duration":120,
      "velocity":64,
      "finger":"?"
   },
   {  
      "pitch":66,
      "offset":50640,
      "duration":240,
      "velocity":64,
      "finger":"?"
   },
   {  
      "pitch":47,
      "offset":50880,
      "duration":240,
      "velocity":64,
      "finger":"?"
   },
   {  
      "pitch":66,
      "offset":50880,
      "duration":0,
      "velocity":64,
      "finger":"?"
   },
   {  
      "pitch":54,
      "offset":51120,
      "duration":240,
      "velocity":64,
      "finger":"?"
   },
   {  
      "pitch":62,
      "offset":51240,
      "duration":120,
      "velocity":64,
      "finger":"?"
   },
   {  
      "pitch":59,
      "offset":51360,
      "duration":240,
      "velocity":64,
      "finger":"?"
   },
   {  
      "pitch":71,
      "offset":51360,
      "duration":240,
      "velocity":64,
      "finger":"?"
   },
   {  
      "pitch":54,
      "offset":51600,
      "duration":240,
      "velocity":64,
      "finger":"?"
   },
   {  
      "pitch":71,
      "offset":51600,
      "duration":0,
      "velocity":64,
      "finger":"?"
   },
   {  
      "pitch":52,
      "offset":51840,
      "duration":240,
      "velocity":64,
      "finger":"?"
   },
   {  
      "pitch":71,
      "offset":51840,
      "duration":0,
      "velocity":64,
      "finger":"?"
   },
   {  
      "pitch":59,
      "offset":52080,
      "duration":240,
      "velocity":64,
      "finger":"?"
   },
   {  
      "pitch":67,
      "offset":52200,
      "duration":120,
      "velocity":64,
      "finger":"?"
   },
   {  
      "pitch":64,
      "offset":52320,
      "duration":480,
      "velocity":64,
      "finger":"?"
   },
   {  
      "pitch":69,
      "offset":52560,
      "duration":120,
      "velocity":64,
      "finger":"?"
   },
   {  
      "pitch":67,
      "offset":52680,
      "duration":120,
      "velocity":64,
      "finger":"?"
   },
   {  
      "pitch":48,
      "offset":52800,
      "duration":240,
      "velocity":64,
      "finger":"?"
   },
   {  
      "pitch":55,
      "offset":53040,
      "duration":240,
      "velocity":64,
      "finger":"?"
   },
   {  
      "pitch":60,
      "offset":53280,
      "duration":240,
      "velocity":64,
      "finger":"?"
   },
   {  
      "pitch":55,
      "offset":53520,
      "duration":240,
      "velocity":64,
      "finger":"?"
   },
   {  
      "pitch":50,
      "offset":53760,
      "duration":480,
      "velocity":64,
      "finger":"?"
   },
   {  
      "pitch":57,
      "offset":53760,
      "duration":480,
      "velocity":64,
      "finger":"?"
   },
   {  
      "pitch":62,
      "offset":53760,
      "duration":480,
      "velocity":64,
      "finger":"?"
   },
   {  
      "pitch":66,
      "offset":53760,
      "duration":480,
      "velocity":64,
      "finger":"?"
   },
   {  
      "pitch":62,
      "offset":54240,
      "duration":0,
      "velocity":64,
      "finger":"?"
   },
   {  
      "pitch":66,
      "offset":54240,
      "duration":0,
      "velocity":64,
      "finger":"?"
   },
   {  
      "pitch":57,
      "offset":54480,
      "duration":240,
      "velocity":64,
      "finger":"?"
   },
   {  
      "pitch":62,
      "offset":54720,
      "duration":0,
      "velocity":64,
      "finger":"?"
   },
   {  
      "pitch":66,
      "offset":54720,
      "duration":0,
      "velocity":64,
      "finger":"?"
   },
   {  
      "pitch":71,
      "offset":54960,
      "duration":120,
      "velocity":64,
      "finger":"?"
   },
   {  
      "pitch":71,
      "offset":55080,
      "duration":0,
      "velocity":64,
      "finger":"?"
   },
   {  
      "pitch":71,
      "offset":55200,
      "duration":0,
      "velocity":64,
      "finger":"?"
   },
   {  
      "pitch":69,
      "offset":55440,
      "duration":120,
      "velocity":64,
      "finger":"?"
   },
   {  
      "pitch":67,
      "offset":55560,
      "duration":120,
      "velocity":64,
      "finger":"?"
   },
   {  
      "pitch":48,
      "offset":55680,
      "duration":480,
      "velocity":64,
      "finger":"?"
   },
   {  
      "pitch":55,
      "offset":55680,
      "duration":480,
      "velocity":64,
      "finger":"?"
   },
   {  
      "pitch":67,
      "offset":55680,
      "duration":0,
      "velocity":64,
      "finger":"?"
   },
   {  
      "pitch":67,
      "offset":55920,
      "duration":0,
      "velocity":64,
      "finger":"?"
   },
   {  
      "pitch":64,
      "offset":56040,
      "duration":120,
      "velocity":64,
      "finger":"?"
   },
   {  
      "pitch":48,
      "offset":56160,
      "duration":0,
      "velocity":64,
      "finger":"?"
   },
   {  
      "pitch":55,
      "offset":56160,
      "duration":0,
      "velocity":64,
      "finger":"?"
   },
   {  
      "pitch":67,
      "offset":56160,
      "duration":120,
      "velocity":64,
      "finger":"?"
   },
   {  
      "pitch":64,
      "offset":56280,
      "duration":120,
      "velocity":64,
      "finger":"?"
   },
   {  
      "pitch":67,
      "offset":56400,
      "duration":240,
      "velocity":64,
      "finger":"?"
   },
   {  
      "pitch":43,
      "offset":56640,
      "duration":480,
      "velocity":64,
      "finger":"?"
   },
   {  
      "pitch":50,
      "offset":56640,
      "duration":480,
      "velocity":64,
      "finger":"?"
   },
   {  
      "pitch":43,
      "offset":57120,
      "duration":0,
      "velocity":64,
      "finger":"?"
   },
   {  
      "pitch":50,
      "offset":57120,
      "duration":0,
      "velocity":64,
      "finger":"?"
   },
   {  
      "pitch":69,
      "offset":57120,
      "duration":120,
      "velocity":64,
      "finger":"?"
   },
   {  
      "pitch":71,
      "offset":57240,
      "duration":120,
      "velocity":64,
      "finger":"?"
   },
   {  
      "pitch":69,
      "offset":57360,
      "duration":120,
      "velocity":64,
      "finger":"?"
   },
   {  
      "pitch":67,
      "offset":57480,
      "duration":120,
      "velocity":64,
      "finger":"?"
   },
   {  
      "pitch":50,
      "offset":57600,
      "duration":0,
      "velocity":64,
      "finger":"?"
   },
   {  
      "pitch":57,
      "offset":57600,
      "duration":480,
      "velocity":64,
      "finger":"?"
   },
   {  
      "pitch":69,
      "offset":57600,
      "duration":240,
      "velocity":64,
      "finger":"?"
   },
   {  
      "pitch":69,
      "offset":57840,
      "duration":0,
      "velocity":64,
      "finger":"?"
   },
   {  
      "pitch":67,
      "offset":57960,
      "duration":120,
      "velocity":64,
      "finger":"?"
   },
   {  
      "pitch":50,
      "offset":58080,
      "duration":0,
      "velocity":64,
      "finger":"?"
   },
   {  
      "pitch":57,
      "offset":58080,
      "duration":0,
      "velocity":64,
      "finger":"?"
   },
   {  
      "pitch":71,
      "offset":58080,
      "duration":240,
      "velocity":64,
      "finger":"?"
   },
   {  
      "pitch":69,
      "offset":58320,
      "duration":120,
      "velocity":64,
      "finger":"?"
   },
   {  
      "pitch":69,
      "offset":58440,
      "duration":0,
      "velocity":64,
      "finger":"?"
   },
   {  
      "pitch":52,
      "offset":58560,
      "duration":480,
      "velocity":64,
      "finger":"?"
   },
   {  
      "pitch":59,
      "offset":58560,
      "duration":480,
      "velocity":64,
      "finger":"?"
   },
   {  
      "pitch":67,
      "offset":58680,
      "duration":360,
      "velocity":64,
      "finger":"?"
   },
   {  
      "pitch":52,
      "offset":59040,
      "duration":0,
      "velocity":64,
      "finger":"?"
   },
   {  
      "pitch":59,
      "offset":59040,
      "duration":0,
      "velocity":64,
      "finger":"?"
   },
   {  
      "pitch":69,
      "offset":59040,
      "duration":120,
      "velocity":64,
      "finger":"?"
   },
   {  
      "pitch":71,
      "offset":59160,
      "duration":120,
      "velocity":64,
      "finger":"?"
   },
   {  
      "pitch":69,
      "offset":59280,
      "duration":120,
      "velocity":64,
      "finger":"?"
   },
   {  
      "pitch":67,
      "offset":59400,
      "duration":120,
      "velocity":64,
      "finger":"?"
   },
   {  
      "pitch":48,
      "offset":59520,
      "duration":480,
      "velocity":64,
      "finger":"?"
   },
   {  
      "pitch":55,
      "offset":59520,
      "duration":480,
      "velocity":64,
      "finger":"?"
   },
   {  
      "pitch":69,
      "offset":59520,
      "duration":120,
      "velocity":64,
      "finger":"?"
   },
   {  
      "pitch":67,
      "offset":59640,
      "duration":120,
      "velocity":64,
      "finger":"?"
   },
   {  
      "pitch":64,
      "offset":59760,
      "duration":120,
      "velocity":64,
      "finger":"?"
   },
   {  
      "pitch":64,
      "offset":59880,
      "duration":0,
      "velocity":64,
      "finger":"?"
   },
   {  
      "pitch":48,
      "offset":60000,
      "duration":0,
      "velocity":64,
      "finger":"?"
   },
   {  
      "pitch":55,
      "offset":60000,
      "duration":0,
      "velocity":64,
      "finger":"?"
   },
   {  
      "pitch":64,
      "offset":60000,
      "duration":0,
      "velocity":64,
      "finger":"?"
   },
   {  
      "pitch":62,
      "offset":60120,
      "duration":120,
      "velocity":64,
      "finger":"?"
   },
   {  
      "pitch":67,
      "offset":60240,
      "duration":240,
      "velocity":64,
      "finger":"?"
   },
   {  
      "pitch":43,
      "offset":60480,
      "duration":480,
      "velocity":64,
      "finger":"?"
   },
   {  
      "pitch":50,
      "offset":60480,
      "duration":480,
      "velocity":64,
      "finger":"?"
   },
   {  
      "pitch":43,
      "offset":60960,
      "duration":0,
      "velocity":64,
      "finger":"?"
   },
   {  
      "pitch":50,
      "offset":60960,
      "duration":0,
      "velocity":64,
      "finger":"?"
   },
   {  
      "pitch":50,
      "offset":61440,
      "duration":0,
      "velocity":64,
      "finger":"?"
   },
   {  
      "pitch":57,
      "offset":61440,
      "duration":480,
      "velocity":64,
      "finger":"?"
   },
   {  
      "pitch":62,
      "offset":61440,
      "duration":480,
      "velocity":64,
      "finger":"?"
   },
   {  
      "pitch":66,
      "offset":61440,
      "duration":480,
      "velocity":64,
      "finger":"?"
   },
   {  
      "pitch":62,
      "offset":61920,
      "duration":0,
      "velocity":64,
      "finger":"?"
   },
   {  
      "pitch":66,
      "offset":61920,
      "duration":0,
      "velocity":64,
      "finger":"?"
   },
   {  
      "pitch":57,
      "offset":62160,
      "duration":240,
      "velocity":64,
      "finger":"?"
   },
   {  
      "pitch":62,
      "offset":62400,
      "duration":0,
      "velocity":64,
      "finger":"?"
   },
   {  
      "pitch":66,
      "offset":62400,
      "duration":0,
      "velocity":64,
      "finger":"?"
   },
   {  
      "pitch":71,
      "offset":62640,
      "duration":120,
      "velocity":64,
      "finger":"?"
   },
   {  
      "pitch":71,
      "offset":62760,
      "duration":0,
      "velocity":64,
      "finger":"?"
   },
   {  
      "pitch":71,
      "offset":62880,
      "duration":0,
      "velocity":64,
      "finger":"?"
   },
   {  
      "pitch":69,
      "offset":63120,
      "duration":120,
      "velocity":64,
      "finger":"?"
   },
   {  
      "pitch":67,
      "offset":63240,
      "duration":120,
      "velocity":64,
      "finger":"?"
   },
   {  
      "pitch":48,
      "offset":63360,
      "duration":480,
      "velocity":64,
      "finger":"?"
   },
   {  
      "pitch":55,
      "offset":63360,
      "duration":480,
      "velocity":64,
      "finger":"?"
   },
   {  
      "pitch":67,
      "offset":63360,
      "duration":0,
      "velocity":64,
      "finger":"?"
   },
   {  
      "pitch":67,
      "offset":63600,
      "duration":0,
      "velocity":64,
      "finger":"?"
   },
   {  
      "pitch":64,
      "offset":63720,
      "duration":120,
      "velocity":64,
      "finger":"?"
   },
   {  
      "pitch":48,
      "offset":63840,
      "duration":0,
      "velocity":64,
      "finger":"?"
   },
   {  
      "pitch":55,
      "offset":63840,
      "duration":0,
      "velocity":64,
      "finger":"?"
   },
   {  
      "pitch":67,
      "offset":63840,
      "duration":120,
      "velocity":64,
      "finger":"?"
   },
   {  
      "pitch":64,
      "offset":63960,
      "duration":120,
      "velocity":64,
      "finger":"?"
   },
   {  
      "pitch":67,
      "offset":64080,
      "duration":240,
      "velocity":64,
      "finger":"?"
   },
   {  
      "pitch":43,
      "offset":64320,
      "duration":480,
      "velocity":64,
      "finger":"?"
   },
   {  
      "pitch":50,
      "offset":64320,
      "duration":480,
      "velocity":64,
      "finger":"?"
   },
   {  
      "pitch":43,
      "offset":64800,
      "duration":0,
      "velocity":64,
      "finger":"?"
   },
   {  
      "pitch":50,
      "offset":64800,
      "duration":0,
      "velocity":64,
      "finger":"?"
   },
   {  
      "pitch":69,
      "offset":64800,
      "duration":120,
      "velocity":64,
      "finger":"?"
   },
   {  
      "pitch":71,
      "offset":64920,
      "duration":120,
      "velocity":64,
      "finger":"?"
   },
   {  
      "pitch":69,
      "offset":65040,
      "duration":120,
      "velocity":64,
      "finger":"?"
   },
   {  
      "pitch":67,
      "offset":65160,
      "duration":120,
      "velocity":64,
      "finger":"?"
   },
   {  
      "pitch":50,
      "offset":65280,
      "duration":0,
      "velocity":64,
      "finger":"?"
   },
   {  
      "pitch":57,
      "offset":65280,
      "duration":480,
      "velocity":64,
      "finger":"?"
   },
   {  
      "pitch":69,
      "offset":65280,
      "duration":240,
      "velocity":64,
      "finger":"?"
   },
   {  
      "pitch":69,
      "offset":65520,
      "duration":0,
      "velocity":64,
      "finger":"?"
   },
   {  
      "pitch":67,
      "offset":65640,
      "duration":120,
      "velocity":64,
      "finger":"?"
   },
   {  
      "pitch":50,
      "offset":65760,
      "duration":0,
      "velocity":64,
      "finger":"?"
   },
   {  
      "pitch":57,
      "offset":65760,
      "duration":0,
      "velocity":64,
      "finger":"?"
   },
   {  
      "pitch":71,
      "offset":65760,
      "duration":240,
      "velocity":64,
      "finger":"?"
   },
   {  
      "pitch":69,
      "offset":66000,
      "duration":120,
      "velocity":64,
      "finger":"?"
   },
   {  
      "pitch":69,
      "offset":66120,
      "duration":0,
      "velocity":64,
      "finger":"?"
   },
   {  
      "pitch":52,
      "offset":66240,
      "duration":480,
      "velocity":64,
      "finger":"?"
   },
   {  
      "pitch":59,
      "offset":66240,
      "duration":480,
      "velocity":64,
      "finger":"?"
   },
   {  
      "pitch":67,
      "offset":66360,
      "duration":360,
      "velocity":64,
      "finger":"?"
   },
   {  
      "pitch":52,
      "offset":66720,
      "duration":0,
      "velocity":64,
      "finger":"?"
   },
   {  
      "pitch":59,
      "offset":66720,
      "duration":0,
      "velocity":64,
      "finger":"?"
   },
   {  
      "pitch":69,
      "offset":66720,
      "duration":120,
      "velocity":64,
      "finger":"?"
   },
   {  
      "pitch":71,
      "offset":66840,
      "duration":120,
      "velocity":64,
      "finger":"?"
   },
   {  
      "pitch":69,
      "offset":66960,
      "duration":120,
      "velocity":64,
      "finger":"?"
   },
   {  
      "pitch":67,
      "offset":67080,
      "duration":120,
      "velocity":64,
      "finger":"?"
   },
   {  
      "pitch":48,
      "offset":67200,
      "duration":480,
      "velocity":64,
      "finger":"?"
   },
   {  
      "pitch":55,
      "offset":67200,
      "duration":480,
      "velocity":64,
      "finger":"?"
   },
   {  
      "pitch":69,
      "offset":67200,
      "duration":120,
      "velocity":64,
      "finger":"?"
   },
   {  
      "pitch":67,
      "offset":67320,
      "duration":120,
      "velocity":64,
      "finger":"?"
   },
   {  
      "pitch":64,
      "offset":67440,
      "duration":120,
      "velocity":64,
      "finger":"?"
   },
   {  
      "pitch":64,
      "offset":67560,
      "duration":0,
      "velocity":64,
      "finger":"?"
   },
   {  
      "pitch":48,
      "offset":67680,
      "duration":0,
      "velocity":64,
      "finger":"?"
   },
   {  
      "pitch":55,
      "offset":67680,
      "duration":0,
      "velocity":64,
      "finger":"?"
   },
   {  
      "pitch":64,
      "offset":67680,
      "duration":0,
      "velocity":64,
      "finger":"?"
   },
   {  
      "pitch":62,
      "offset":67800,
      "duration":120,
      "velocity":64,
      "finger":"?"
   },
   {  
      "pitch":67,
      "offset":67920,
      "duration":240,
      "velocity":64,
      "finger":"?"
   },
   {  
      "pitch":43,
      "offset":68160,
      "duration":480,
      "velocity":64,
      "finger":"?"
   },
   {  
      "pitch":50,
      "offset":68160,
      "duration":480,
      "velocity":64,
      "finger":"?"
   },
   {  
      "pitch":43,
      "offset":68640,
      "duration":0,
      "velocity":64,
      "finger":"?"
   },
   {  
      "pitch":50,
      "offset":68640,
      "duration":0,
      "velocity":64,
      "finger":"?"
   },
   {  
      "pitch":50,
      "offset":69120,
      "duration":0,
      "velocity":64,
      "finger":"?"
   },
   {  
      "pitch":57,
      "offset":69120,
      "duration":480,
      "velocity":64,
      "finger":"?"
   },
   {  
      "pitch":62,
      "offset":69120,
      "duration":480,
      "velocity":64,
      "finger":"?"
   },
   {  
      "pitch":66,
      "offset":69120,
      "duration":480,
      "velocity":64,
      "finger":"?"
   },
   {  
      "pitch":62,
      "offset":69600,
      "duration":0,
      "velocity":64,
      "finger":"?"
   },
   {  
      "pitch":66,
      "offset":69600,
      "duration":0,
      "velocity":64,
      "finger":"?"
   },
   {  
      "pitch":57,
      "offset":69840,
      "duration":240,
      "velocity":64,
      "finger":"?"
   },
   {  
      "pitch":62,
      "offset":70080,
      "duration":0,
      "velocity":64,
      "finger":"?"
   },
   {  
      "pitch":66,
      "offset":70080,
      "duration":0,
      "velocity":64,
      "finger":"?"
   },
   {  
      "pitch":57,
      "offset":70320,
      "duration":240,
      "velocity":64,
      "finger":"?"
   },
   {  
      "pitch":67,
      "offset":70560,
      "duration":240,
      "velocity":64,
      "finger":"?"
   },
   {  
      "pitch":69,
      "offset":70800,
      "duration":240,
      "velocity":64,
      "finger":"?"
   },
   {  
      "pitch":52,
      "offset":71040,
      "duration":240,
      "velocity":64,
      "finger":"?"
   },
   {  
      "pitch":71,
      "offset":71040,
      "duration":720,
      "velocity":64,
      "finger":"?"
   },
   {  
      "pitch":59,
      "offset":71280,
      "duration":240,
      "velocity":64,
      "finger":"?"
   },
   {  
      "pitch":64,
      "offset":71520,
      "duration":240,
      "velocity":64,
      "finger":"?"
   },
   {  
      "pitch":59,
      "offset":71760,
      "duration":240,
      "velocity":64,
      "finger":"?"
   },
   {  
      "pitch":69,
      "offset":71760,
      "duration":120,
      "velocity":64,
      "finger":"?"
   },
   {  
      "pitch":71,
      "offset":71880,
      "duration":120,
      "velocity":64,
      "finger":"?"
   },
   {  
      "pitch":48,
      "offset":72000,
      "duration":240,
      "velocity":64,
      "finger":"?"
   },
   {  
      "pitch":72,
      "offset":72000,
      "duration":480,
      "velocity":64,
      "finger":"?"
   },
   {  
      "pitch":55,
      "offset":72240,
      "duration":240,
      "velocity":64,
      "finger":"?"
   },
   {  
      "pitch":60,
      "offset":72480,
      "duration":240,
      "velocity":64,
      "finger":"?"
   },
   {  
      "pitch":71,
      "offset":72480,
      "duration":480,
      "velocity":64,
      "finger":"?"
   },
   {  
      "pitch":55,
      "offset":72720,
      "duration":240,
      "velocity":64,
      "finger":"?"
   },
   {  
      "pitch":50,
      "offset":72960,
      "duration":240,
      "velocity":64,
      "finger":"?"
   },
   {  
      "pitch":69,
      "offset":72960,
      "duration":480,
      "velocity":64,
      "finger":"?"
   },
   {  
      "pitch":57,
      "offset":73200,
      "duration":240,
      "velocity":64,
      "finger":"?"
   },
   {  
      "pitch":62,
      "offset":73440,
      "duration":480,
      "velocity":64,
      "finger":"?"
   },
   {  
      "pitch":66,
      "offset":73440,
      "duration":480,
      "velocity":64,
      "finger":"?"
   },
   {  
      "pitch":57,
      "offset":73680,
      "duration":240,
      "velocity":64,
      "finger":"?"
   },
   {  
      "pitch":62,
      "offset":73920,
      "duration":0,
      "velocity":64,
      "finger":"?"
   },
   {  
      "pitch":66,
      "offset":73920,
      "duration":0,
      "velocity":64,
      "finger":"?"
   },
   {  
      "pitch":57,
      "offset":74160,
      "duration":240,
      "velocity":64,
      "finger":"?"
   },
   {  
      "pitch":67,
      "offset":74400,
      "duration":240,
      "velocity":64,
      "finger":"?"
   },
   {  
      "pitch":69,
      "offset":74640,
      "duration":240,
      "velocity":64,
      "finger":"?"
   },
   {  
      "pitch":52,
      "offset":74880,
      "duration":240,
      "velocity":64,
      "finger":"?"
   },
   {  
      "pitch":71,
      "offset":74880,
      "duration":720,
      "velocity":64,
      "finger":"?"
   },
   {  
      "pitch":59,
      "offset":75120,
      "duration":240,
      "velocity":64,
      "finger":"?"
   },
   {  
      "pitch":64,
      "offset":75360,
      "duration":240,
      "velocity":64,
      "finger":"?"
   },
   {  
      "pitch":59,
      "offset":75600,
      "duration":240,
      "velocity":64,
      "finger":"?"
   },
   {  
      "pitch":69,
      "offset":75600,
      "duration":120,
      "velocity":64,
      "finger":"?"
   },
   {  
      "pitch":71,
      "offset":75720,
      "duration":120,
      "velocity":64,
      "finger":"?"
   },
   {  
      "pitch":48,
      "offset":75840,
      "duration":240,
      "velocity":64,
      "finger":"?"
   },
   {  
      "pitch":72,
      "offset":75840,
      "duration":480,
      "velocity":64,
      "finger":"?"
   },
   {  
      "pitch":55,
      "offset":76080,
      "duration":240,
      "velocity":64,
      "finger":"?"
   },
   {  
      "pitch":60,
      "offset":76320,
      "duration":240,
      "velocity":64,
      "finger":"?"
   },
   {  
      "pitch":71,
      "offset":76320,
      "duration":480,
      "velocity":64,
      "finger":"?"
   },
   {  
      "pitch":55,
      "offset":76560,
      "duration":240,
      "velocity":64,
      "finger":"?"
   },
   {  
      "pitch":50,
      "offset":76800,
      "duration":240,
      "velocity":64,
      "finger":"?"
   },
   {  
      "pitch":69,
      "offset":76800,
      "duration":480,
      "velocity":64,
      "finger":"?"
   },
   {  
      "pitch":57,
      "offset":77040,
      "duration":240,
      "velocity":64,
      "finger":"?"
   },
   {  
      "pitch":62,
      "offset":77280,
      "duration":480,
      "velocity":64,
      "finger":"?"
   },
   {  
      "pitch":66,
      "offset":77280,
      "duration":480,
      "velocity":64,
      "finger":"?"
   },
   {  
      "pitch":57,
      "offset":77520,
      "duration":240,
      "velocity":64,
      "finger":"?"
   },
   {  
      "pitch":62,
      "offset":77760,
      "duration":0,
      "velocity":64,
      "finger":"?"
   },
   {  
      "pitch":66,
      "offset":77760,
      "duration":0,
      "velocity":64,
      "finger":"?"
   },
   {  
      "pitch":57,
      "offset":78000,
      "duration":240,
      "velocity":64,
      "finger":"?"
   },
   {  
      "pitch":74,
      "offset":78240,
      "duration":240,
      "velocity":64,
      "finger":"?"
   },
   {  
      "pitch":72,
      "offset":78480,
      "duration":240,
      "velocity":64,
      "finger":"?"
   },
   {  
      "pitch":52,
      "offset":78720,
      "duration":240,
      "velocity":64,
      "finger":"?"
   },
   {  
      "pitch":71,
      "offset":78720,
      "duration":720,
      "velocity":64,
      "finger":"?"
   },
   {  
      "pitch":59,
      "offset":78960,
      "duration":240,
      "velocity":64,
      "finger":"?"
   },
   {  
      "pitch":64,
      "offset":79200,
      "duration":240,
      "velocity":64,
      "finger":"?"
   },
   {  
      "pitch":59,
      "offset":79440,
      "duration":240,
      "velocity":64,
      "finger":"?"
   },
   {  
      "pitch":69,
      "offset":79440,
      "duration":120,
      "velocity":64,
      "finger":"?"
   },
   {  
      "pitch":71,
      "offset":79560,
      "duration":120,
      "velocity":64,
      "finger":"?"
   },
   {  
      "pitch":48,
      "offset":79680,
      "duration":240,
      "velocity":64,
      "finger":"?"
   },
   {  
      "pitch":72,
      "offset":79680,
      "duration":480,
      "velocity":64,
      "finger":"?"
   },
   {  
      "pitch":55,
      "offset":79920,
      "duration":240,
      "velocity":64,
      "finger":"?"
   },
   {  
      "pitch":60,
      "offset":80160,
      "duration":240,
      "velocity":64,
      "finger":"?"
   },
   {  
      "pitch":64,
      "offset":80160,
      "duration":480,
      "velocity":64,
      "finger":"?"
   },
   {  
      "pitch":55,
      "offset":80400,
      "duration":240,
      "velocity":64,
      "finger":"?"
   },
   {  
      "pitch":50,
      "offset":80640,
      "duration":240,
      "velocity":64,
      "finger":"?"
   },
   {  
      "pitch":66,
      "offset":80640,
      "duration":480,
      "velocity":64,
      "finger":"?"
   },
   {  
      "pitch":57,
      "offset":80880,
      "duration":240,
      "velocity":64,
      "finger":"?"
   },
   {  
      "pitch":62,
      "offset":81120,
      "duration":480,
      "velocity":64,
      "finger":"?"
   },
   {  
      "pitch":66,
      "offset":81120,
      "duration":0,
      "velocity":64,
      "finger":"?"
   },
   {  
      "pitch":57,
      "offset":81360,
      "duration":240,
      "velocity":64,
      "finger":"?"
   },
   {  
      "pitch":62,
      "offset":81600,
      "duration":0,
      "velocity":64,
      "finger":"?"
   },
   {  
      "pitch":66,
      "offset":81600,
      "duration":0,
      "velocity":64,
      "finger":"?"
   },
   {  
      "pitch":57,
      "offset":81840,
      "duration":240,
      "velocity":64,
      "finger":"?"
   },
   {  
      "pitch":62,
      "offset":82080,
      "duration":0,
      "velocity":64,
      "finger":"?"
   },
   {  
      "pitch":66,
      "offset":82080,
      "duration":0,
      "velocity":64,
      "finger":"?"
   },
   {  
      "pitch":52,
      "offset":82560,
      "duration":240,
      "velocity":64,
      "finger":"?"
   },
   {  
      "pitch":67,
      "offset":82560,
      "duration":960,
      "velocity":64,
      "finger":"?"
   },
   {  
      "pitch":59,
      "offset":82800,
      "duration":240,
      "velocity":64,
      "finger":"?"
   },
   {  
      "pitch":64,
      "offset":83040,
      "duration":240,
      "velocity":64,
      "finger":"?"
   },
   {  
      "pitch":59,
      "offset":83280,
      "duration":240,
      "velocity":64,
      "finger":"?"
   },
   {  
      "pitch":48,
      "offset":83520,
      "duration":240,
      "velocity":64,
      "finger":"?"
   },
   {  
      "pitch":55,
      "offset":83760,
      "duration":240,
      "velocity":64,
      "finger":"?"
   },
   {  
      "pitch":60,
      "offset":84000,
      "duration":240,
      "velocity":64,
      "finger":"?"
   },
   {  
      "pitch":55,
      "offset":84240,
      "duration":240,
      "velocity":64,
      "finger":"?"
   },
   {  
      "pitch":69,
      "offset":84240,
      "duration":240,
      "velocity":64,
      "finger":"?"
   },
   {  
      "pitch":50,
      "offset":84480,
      "duration":480,
      "velocity":64,
      "finger":"?"
   },
   {  
      "pitch":57,
      "offset":84480,
      "duration":480,
      "velocity":64,
      "finger":"?"
   },
   {  
      "pitch":62,
      "offset":84480,
      "duration":480,
      "velocity":64,
      "finger":"?"
   },
   {  
      "pitch":66,
      "offset":84480,
      "duration":480,
      "velocity":64,
      "finger":"?"
   },
   {  
      "pitch":62,
      "offset":84960,
      "duration":0,
      "velocity":64,
      "finger":"?"
   },
   {  
      "pitch":66,
      "offset":84960,
      "duration":0,
      "velocity":64,
      "finger":"?"
   },
   {  
      "pitch":57,
      "offset":85200,
      "duration":240,
      "velocity":64,
      "finger":"?"
   },
   {  
      "pitch":62,
      "offset":85440,
      "duration":0,
      "velocity":64,
      "finger":"?"
   },
   {  
      "pitch":66,
      "offset":85440,
      "duration":0,
      "velocity":64,
      "finger":"?"
   },
   {  
      "pitch":83,
      "offset":85920,
      "duration":240,
      "velocity":64,
      "finger":"?"
   },
   {  
      "pitch":81,
      "offset":86160,
      "duration":120,
      "velocity":64,
      "finger":"?"
   },
   {  
      "pitch":79,
      "offset":86280,
      "duration":120,
      "velocity":64,
      "finger":"?"
   },
   {  
      "pitch":60,
      "offset":86400,
      "duration":480,
      "velocity":64,
      "finger":"?"
   },
   {  
      "pitch":67,
      "offset":86400,
      "duration":480,
      "velocity":64,
      "finger":"?"
   },
   {  
      "pitch":79,
      "offset":86400,
      "duration":0,
      "velocity":64,
      "finger":"?"
   },
   {  
      "pitch":79,
      "offset":86640,
      "duration":0,
      "velocity":64,
      "finger":"?"
   },
   {  
      "pitch":76,
      "offset":86760,
      "duration":120,
      "velocity":64,
      "finger":"?"
   },
   {  
      "pitch":60,
      "offset":86880,
      "duration":0,
      "velocity":64,
      "finger":"?"
   },
   {  
      "pitch":67,
      "offset":86880,
      "duration":0,
      "velocity":64,
      "finger":"?"
   },
   {  
      "pitch":79,
      "offset":86880,
      "duration":120,
      "velocity":64,
      "finger":"?"
   },
   {  
      "pitch":76,
      "offset":87000,
      "duration":120,
      "velocity":64,
      "finger":"?"
   },
   {  
      "pitch":79,
      "offset":87120,
      "duration":240,
      "velocity":64,
      "finger":"?"
   },
   {  
      "pitch":55,
      "offset":87360,
      "duration":480,
      "velocity":64,
      "finger":"?"
   },
   {  
      "pitch":62,
      "offset":87360,
      "duration":480,
      "velocity":64,
      "finger":"?"
   },
   {  
      "pitch":55,
      "offset":87840,
      "duration":0,
      "velocity":64,
      "finger":"?"
   },
   {  
      "pitch":62,
      "offset":87840,
      "duration":0,
      "velocity":64,
      "finger":"?"
   },
   {  
      "pitch":81,
      "offset":87840,
      "duration":120,
      "velocity":64,
      "finger":"?"
   },
   {  
      "pitch":83,
      "offset":87960,
      "duration":120,
      "velocity":64,
      "finger":"?"
   },
   {  
      "pitch":81,
      "offset":88080,
      "duration":120,
      "velocity":64,
      "finger":"?"
   },
   {  
      "pitch":79,
      "offset":88200,
      "duration":120,
      "velocity":64,
      "finger":"?"
   },
   {  
      "pitch":62,
      "offset":88320,
      "duration":0,
      "velocity":64,
      "finger":"?"
   },
   {  
      "pitch":69,
      "offset":88320,
      "duration":480,
      "velocity":64,
      "finger":"?"
   },
   {  
      "pitch":81,
      "offset":88320,
      "duration":240,
      "velocity":64,
      "finger":"?"
   },
   {  
      "pitch":81,
      "offset":88560,
      "duration":0,
      "velocity":64,
      "finger":"?"
   },
   {  
      "pitch":79,
      "offset":88680,
      "duration":120,
      "velocity":64,
      "finger":"?"
   },
   {  
      "pitch":62,
      "offset":88800,
      "duration":0,
      "velocity":64,
      "finger":"?"
   },
   {  
      "pitch":69,
      "offset":88800,
      "duration":0,
      "velocity":64,
      "finger":"?"
   },
   {  
      "pitch":83,
      "offset":88800,
      "duration":240,
      "velocity":64,
      "finger":"?"
   },
   {  
      "pitch":81,
      "offset":89040,
      "duration":120,
      "velocity":64,
      "finger":"?"
   },
   {  
      "pitch":81,
      "offset":89160,
      "duration":0,
      "velocity":64,
      "finger":"?"
   },
   {  
      "pitch":64,
      "offset":89280,
      "duration":480,
      "velocity":64,
      "finger":"?"
   },
   {  
      "pitch":71,
      "offset":89280,
      "duration":480,
      "velocity":64,
      "finger":"?"
   },
   {  
      "pitch":79,
      "offset":89400,
      "duration":360,
      "velocity":64,
      "finger":"?"
   },
   {  
      "pitch":64,
      "offset":89760,
      "duration":0,
      "velocity":64,
      "finger":"?"
   },
   {  
      "pitch":71,
      "offset":89760,
      "duration":0,
      "velocity":64,
      "finger":"?"
   },
   {  
      "pitch":81,
      "offset":89760,
      "duration":120,
      "velocity":64,
      "finger":"?"
   },
   {  
      "pitch":83,
      "offset":89880,
      "duration":120,
      "velocity":64,
      "finger":"?"
   },
   {  
      "pitch":81,
      "offset":90000,
      "duration":120,
      "velocity":64,
      "finger":"?"
   },
   {  
      "pitch":79,
      "offset":90120,
      "duration":120,
      "velocity":64,
      "finger":"?"
   },
   {  
      "pitch":60,
      "offset":90240,
      "duration":480,
      "velocity":64,
      "finger":"?"
   },
   {  
      "pitch":67,
      "offset":90240,
      "duration":480,
      "velocity":64,
      "finger":"?"
   },
   {  
      "pitch":81,
      "offset":90240,
      "duration":120,
      "velocity":64,
      "finger":"?"
   },
   {  
      "pitch":79,
      "offset":90360,
      "duration":120,
      "velocity":64,
      "finger":"?"
   },
   {  
      "pitch":76,
      "offset":90480,
      "duration":120,
      "velocity":64,
      "finger":"?"
   },
   {  
      "pitch":76,
      "offset":90600,
      "duration":0,
      "velocity":64,
      "finger":"?"
   },
   {  
      "pitch":60,
      "offset":90720,
      "duration":0,
      "velocity":64,
      "finger":"?"
   },
   {  
      "pitch":67,
      "offset":90720,
      "duration":0,
      "velocity":64,
      "finger":"?"
   },
   {  
      "pitch":76,
      "offset":90720,
      "duration":0,
      "velocity":64,
      "finger":"?"
   },
   {  
      "pitch":74,
      "offset":90840,
      "duration":120,
      "velocity":64,
      "finger":"?"
   },
   {  
      "pitch":79,
      "offset":90960,
      "duration":240,
      "velocity":64,
      "finger":"?"
   },
   {  
      "pitch":55,
      "offset":91200,
      "duration":480,
      "velocity":64,
      "finger":"?"
   },
   {  
      "pitch":62,
      "offset":91200,
      "duration":480,
      "velocity":64,
      "finger":"?"
   },
   {  
      "pitch":55,
      "offset":91680,
      "duration":0,
      "velocity":64,
      "finger":"?"
   },
   {  
      "pitch":62,
      "offset":91680,
      "duration":0,
      "velocity":64,
      "finger":"?"
   },
   {  
      "pitch":62,
      "offset":92160,
      "duration":0,
      "velocity":64,
      "finger":"?"
   },
   {  
      "pitch":69,
      "offset":92160,
      "duration":480,
      "velocity":64,
      "finger":"?"
   },
   {  
      "pitch":74,
      "offset":92160,
      "duration":480,
      "velocity":64,
      "finger":"?"
   },
   {  
      "pitch":78,
      "offset":92160,
      "duration":480,
      "velocity":64,
      "finger":"?"
   },
   {  
      "pitch":74,
      "offset":92640,
      "duration":0,
      "velocity":64,
      "finger":"?"
   },
   {  
      "pitch":78,
      "offset":92640,
      "duration":0,
      "velocity":64,
      "finger":"?"
   },
   {  
      "pitch":69,
      "offset":92880,
      "duration":240,
      "velocity":64,
      "finger":"?"
   },
   {  
      "pitch":74,
      "offset":93120,
      "duration":0,
      "velocity":64,
      "finger":"?"
   },
   {  
      "pitch":78,
      "offset":93120,
      "duration":0,
      "velocity":64,
      "finger":"?"
   },
   {  
      "pitch":83,
      "offset":93600,
      "duration":240,
      "velocity":64,
      "finger":"?"
   },
   {  
      "pitch":81,
      "offset":93840,
      "duration":120,
      "velocity":64,
      "finger":"?"
   },
   {  
      "pitch":79,
      "offset":93960,
      "duration":120,
      "velocity":64,
      "finger":"?"
   },
   {  
      "pitch":60,
      "offset":94080,
      "duration":960,
      "velocity":64,
      "finger":"?"
   },
   {  
      "pitch":67,
      "offset":94080,
      "duration":960,
      "velocity":64,
      "finger":"?"
   },
   {  
      "pitch":79,
      "offset":94080,
      "duration":0,
      "velocity":64,
      "finger":"?"
   },
   {  
      "pitch":79,
      "offset":94320,
      "duration":0,
      "velocity":64,
      "finger":"?"
   },
   {  
      "pitch":76,
      "offset":94440,
      "duration":120,
      "velocity":64,
      "finger":"?"
   },
   {  
      "pitch":79,
      "offset":94560,
      "duration":120,
      "velocity":64,
      "finger":"?"
   },
   {  
      "pitch":76,
      "offset":94680,
      "duration":120,
      "velocity":64,
      "finger":"?"
   },
   {  
      "pitch":79,
      "offset":94800,
      "duration":240,
      "velocity":64,
      "finger":"?"
   },
   {  
      "pitch":55,
      "offset":95040,
      "duration":960,
      "velocity":64,
      "finger":"?"
   },
   {  
      "pitch":62,
      "offset":95040,
      "duration":960,
      "velocity":64,
      "finger":"?"
   },
   {  
      "pitch":81,
      "offset":95520,
      "duration":120,
      "velocity":64,
      "finger":"?"
   },
   {  
      "pitch":83,
      "offset":95640,
      "duration":120,
      "velocity":64,
      "finger":"?"
   },
   {  
      "pitch":81,
      "offset":95760,
      "duration":120,
      "velocity":64,
      "finger":"?"
   },
   {  
      "pitch":79,
      "offset":95880,
      "duration":120,
      "velocity":64,
      "finger":"?"
   },
   {  
      "pitch":62,
      "offset":96000,
      "duration":0,
      "velocity":64,
      "finger":"?"
   },
   {  
      "pitch":69,
      "offset":96000,
      "duration":960,
      "velocity":64,
      "finger":"?"
   },
   {  
      "pitch":81,
      "offset":96000,
      "duration":240,
      "velocity":64,
      "finger":"?"
   },
   {  
      "pitch":81,
      "offset":96240,
      "duration":0,
      "velocity":64,
      "finger":"?"
   },
   {  
      "pitch":79,
      "offset":96360,
      "duration":120,
      "velocity":64,
      "finger":"?"
   },
   {  
      "pitch":83,
      "offset":96480,
      "duration":240,
      "velocity":64,
      "finger":"?"
   },
   {  
      "pitch":81,
      "offset":96720,
      "duration":120,
      "velocity":64,
      "finger":"?"
   },
   {  
      "pitch":81,
      "offset":96840,
      "duration":0,
      "velocity":64,
      "finger":"?"
   },
   {  
      "pitch":64,
      "offset":96960,
      "duration":960,
      "velocity":64,
      "finger":"?"
   },
   {  
      "pitch":71,
      "offset":96960,
      "duration":960,
      "velocity":64,
      "finger":"?"
   },
   {  
      "pitch":79,
      "offset":97080,
      "duration":360,
      "velocity":64,
      "finger":"?"
   },
   {  
      "pitch":81,
      "offset":97440,
      "duration":120,
      "velocity":64,
      "finger":"?"
   },
   {  
      "pitch":83,
      "offset":97560,
      "duration":120,
      "velocity":64,
      "finger":"?"
   },
   {  
      "pitch":81,
      "offset":97680,
      "duration":120,
      "velocity":64,
      "finger":"?"
   },
   {  
      "pitch":79,
      "offset":97800,
      "duration":120,
      "velocity":64,
      "finger":"?"
   },
   {  
      "pitch":60,
      "offset":97920,
      "duration":960,
      "velocity":64,
      "finger":"?"
   },
   {  
      "pitch":67,
      "offset":97920,
      "duration":960,
      "velocity":64,
      "finger":"?"
   },
   {  
      "pitch":81,
      "offset":97920,
      "duration":120,
      "velocity":64,
      "finger":"?"
   },
   {  
      "pitch":79,
      "offset":98040,
      "duration":120,
      "velocity":64,
      "finger":"?"
   },
   {  
      "pitch":76,
      "offset":98160,
      "duration":120,
      "velocity":64,
      "finger":"?"
   },
   {  
      "pitch":76,
      "offset":98280,
      "duration":0,
      "velocity":64,
      "finger":"?"
   },
   {  
      "pitch":76,
      "offset":98400,
      "duration":0,
      "velocity":64,
      "finger":"?"
   },
   {  
      "pitch":74,
      "offset":98520,
      "duration":120,
      "velocity":64,
      "finger":"?"
   },
   {  
      "pitch":79,
      "offset":98640,
      "duration":240,
      "velocity":64,
      "finger":"?"
   },
   {  
      "pitch":55,
      "offset":98880,
      "duration":960,
      "velocity":64,
      "finger":"?"
   },
   {  
      "pitch":62,
      "offset":98880,
      "duration":960,
      "velocity":64,
      "finger":"?"
   },
   {  
      "pitch":62,
      "offset":99840,
      "duration":0,
      "velocity":64,
      "finger":"?"
   },
   {  
      "pitch":69,
      "offset":99840,
      "duration":480,
      "velocity":64,
      "finger":"?"
   },
   {  
      "pitch":74,
      "offset":99840,
      "duration":480,
      "velocity":64,
      "finger":"?"
   },
   {  
      "pitch":78,
      "offset":99840,
      "duration":480,
      "velocity":64,
      "finger":"?"
   },
   {  
      "pitch":74,
      "offset":100320,
      "duration":0,
      "velocity":64,
      "finger":"?"
   },
   {  
      "pitch":78,
      "offset":100320,
      "duration":0,
      "velocity":64,
      "finger":"?"
   },
   {  
      "pitch":69,
      "offset":100560,
      "duration":240,
      "velocity":64,
      "finger":"?"
   },
   {  
      "pitch":74,
      "offset":100800,
      "duration":0,
      "velocity":64,
      "finger":"?"
   },
   {  
      "pitch":78,
      "offset":100800,
      "duration":0,
      "velocity":64,
      "finger":"?"
   },
   {  
      "pitch":62,
      "offset":101040,
      "duration":120,
      "velocity":64,
      "finger":"?"
   },
   {  
      "pitch":62,
      "offset":101160,
      "duration":0,
      "velocity":64,
      "finger":"?"
   },
   {  
      "pitch":71,
      "offset":101280,
      "duration":120,
      "velocity":64,
      "finger":"?"
   },
   {  
      "pitch":69,
      "offset":101400,
      "duration":240,
      "velocity":64,
      "finger":"?"
   },
   {  
      "pitch":69,
      "offset":101640,
      "duration":0,
      "velocity":64,
      "finger":"?"
   },
   {  
      "pitch":40,
      "offset":101760,
      "duration":240,
      "velocity":64,
      "finger":"?"
   },
   {  
      "pitch":67,
      "offset":101880,
      "duration":120,
      "velocity":64,
      "finger":"?"
   },
   {  
      "pitch":47,
      "offset":102000,
      "duration":240,
      "velocity":64,
      "finger":"?"
   },
   {  
      "pitch":64,
      "offset":102000,
      "duration":240,
      "velocity":64,
      "finger":"?"
   },
   {  
      "pitch":52,
      "offset":102240,
      "duration":1440,
      "velocity":64,
      "finger":"?"
   }
]